<svg xmlns="http://www.w3.org/2000/svg" xmlns:xlink="http://www.w3.org/1999/xlink" viewBox="0 0 1924.97 1082.34"><defs><style>.a{fill:none;}.b{clip-path:url(#a);}.c{fill:#3f4756;}.d{fill:url(#b);}.e{fill:url(#c);}.f{fill:url(#d);}.g{fill:url(#e);}.h{fill:url(#f);}.i{fill:url(#g);}.j{fill:url(#h);}.k{fill:url(#i);}.l{fill:url(#j);}.m{fill:url(#k);}.n{fill:url(#l);}.o{fill:url(#m);}</style><clipPath id="a" transform="translate(0 1.34)"><rect class="a" x="1" width="1920" height="1081"/></clipPath><linearGradient id="b" x1="1155.26" y1="937.58" x2="1490.57" y2="937.58" gradientUnits="userSpaceOnUse"><stop offset="0" stop-color="#fff"/><stop offset="0.2" stop-color="#a3abbd"/><stop offset="0.44" stop-color="#565e6f"/><stop offset="0.55" stop-color="#4d5565"/><stop offset="0.75" stop-color="#3f4756"/></linearGradient><linearGradient id="c" x1="1459.36" y1="809.86" x2="1653.59" y2="615.63" gradientUnits="userSpaceOnUse"><stop offset="0" stop-color="#89744c"/><stop offset="1" stop-color="#464b55"/><stop offset="1" stop-color="#3f4756"/></linearGradient><linearGradient id="d" x1="1587.26" y1="987.2" x2="1921.89" y2="987.2" xlink:href="#b"/><linearGradient id="e" x1="1729.54" y1="1007.08" x2="1919.83" y2="1007.08" xlink:href="#b"/><linearGradient id="f" x1="1444.97" y1="929.9" x2="1921.54" y2="929.9" xlink:href="#b"/><linearGradient id="g" x1="1781.31" y1="776.73" x2="1923.6" y2="776.73" xlink:href="#b"/><linearGradient id="h" x1="1350.69" y1="913.28" x2="1779.94" y2="913.28" xlink:href="#b"/><linearGradient id="i" x1="1294.46" y1="1046.58" x2="1605.77" y2="1046.58" xlink:href="#b"/><linearGradient id="j" x1="1694.91" y1="674.58" x2="1924.97" y2="674.58" xlink:href="#b"/><linearGradient id="k" x1="1694.91" y1="574.84" x2="1922.91" y2="574.84" xlink:href="#b"/><linearGradient id="l" x1="1493.66" y1="750.04" x2="1782.69" y2="750.04" xlink:href="#b"/><linearGradient id="m" x1="1002" y1="1013.75" x2="1350.69" y2="1013.75" xlink:href="#b"/></defs><title>CreativeCogBkground</title><g class="b"><rect class="c" width="1920" height="1082.34"/><polygon class="d" points="1162.8 948.53 1300.63 831.49 1490.57 841.07 1350.69 1043.67 1155.26 949.9 1162.8 948.53"/><polygon class="e" points="1508.4 671.33 1490.57 841.07 1698.34 660.38 1508.4 671.33"/><polygon class="f" points="1921.54 893.43 1884.17 934.84 1609.2 1019.03 1587.26 1080.63 1729.54 1080.97 1735.37 1058.04 1887.94 937.24 1921.89 940.32 1921.54 893.43"/><path class="g" d="M1919.14,936.92v1.37l.68,142.37s-190.29,0-190.29-1,1.37-23.27,3.09-24.64S1879.71,933.5,1884.17,933.5,1919.14,936.92,1919.14,936.92Z" transform="translate(0 1.34)"/><path class="h" d="M1920.17,813l1.37,79.06-37.37,41.41-275,84.19-21.94,61.6-142.29,1,160.8-70.15s172.8-230.66,174.86-230.66S1920.17,813,1920.17,813Z" transform="translate(0 1.34)"/><polygon class="i" points="1921.54 737.38 1921.54 816.43 1781.31 782.21 1923.6 737.03 1921.54 737.38"/><polygon class="j" points="1779.94 782.55 1605.77 1011.5 1350.69 1044.01 1492.29 838.33 1779.94 782.55"/><polygon class="k" points="1294.46 1080.63 1350.69 1044.01 1605.77 1011.5 1444.97 1081.66 1294.46 1080.63"/><polygon class="l" points="1917.77 570.71 1694.91 661.74 1781.31 782.55 1924.97 737.03 1923.94 566.6 1917.77 570.71"/><path class="m" d="M1922.91,567.45c0-1-2.4-25.12-2.4-25.12l-140.91-53L1694.91,660.4Z" transform="translate(0 1.34)"/><polygon class="n" points="1493.66 838.33 1696.29 661.74 1782.69 782.21 1493.66 838.33"/><path class="o" d="M1003.71,1079.29c6.86-2.06,292.8.68,292.8.68l54.18-37.3-193.38-95.14L1002,1080" transform="translate(0 1.34)"/></g></svg>