<svg xmlns="http://www.w3.org/2000/svg" xmlns:xlink="http://www.w3.org/1999/xlink" viewBox="0 0 1921 1081"><defs><style>.a{fill:none;}.b{clip-path:url(#a);}.c{fill:#3f4756;stroke:#3f4756;stroke-miterlimit:10;stroke-width:1px;}.d{fill:url(#b);}.e{fill:url(#c);}.f{fill:url(#d);}.g{fill:url(#e);}.h{fill:url(#f);}.i{fill:url(#g);}.j{fill:url(#h);}.k{fill:url(#i);}.l{fill:url(#j);}.m{fill:url(#k);}.n{fill:url(#l);}.o{fill:url(#m);}</style><clipPath id="a" transform="translate(0.5 0.5)"><rect class="a" x="1" y="-1" width="1920" height="1080"/></clipPath><linearGradient id="b" x1="1144.76" y1="936.05" x2="1480.07" y2="936.05" gradientUnits="userSpaceOnUse"><stop offset="0" stop-color="#fff"/><stop offset="0.2" stop-color="#a3abbd"/><stop offset="0.44" stop-color="#565e6f"/><stop offset="0.55" stop-color="#4d5565"/><stop offset="0.75" stop-color="#3f4756"/></linearGradient><linearGradient id="c" x1="1449.05" y1="808.73" x2="1643.09" y2="614.69" gradientUnits="userSpaceOnUse"><stop offset="0" stop-color="#89744c"/><stop offset="1" stop-color="#464b55"/><stop offset="1" stop-color="#3f4756"/></linearGradient><linearGradient id="d" x1="1576.76" y1="985.56" x2="1911.39" y2="985.56" xlink:href="#b"/><linearGradient id="e" x1="1718.54" y1="1006.24" x2="1908.83" y2="1006.24" xlink:href="#b"/><linearGradient id="f" x1="1433.97" y1="929.23" x2="1910.54" y2="929.23" xlink:href="#b"/><linearGradient id="g" x1="1770.81" y1="775.55" x2="1913.1" y2="775.55" xlink:href="#b"/><linearGradient id="h" x1="1340.19" y1="911.8" x2="1769.44" y2="911.8" xlink:href="#b"/><linearGradient id="i" x1="1283.96" y1="1044.81" x2="1595.27" y2="1044.81" xlink:href="#b"/><linearGradient id="j" x1="1684.41" y1="673.62" x2="1914.47" y2="673.62" xlink:href="#b"/><linearGradient id="k" x1="1683.91" y1="574.94" x2="1911.91" y2="574.94" xlink:href="#b"/><linearGradient id="l" x1="1483.16" y1="748.91" x2="1772.19" y2="748.91" xlink:href="#b"/><linearGradient id="m" x1="991" y1="1012.9" x2="1339.69" y2="1012.9" xlink:href="#b"/></defs><title>creativeCogBkground</title><g class="b"><rect class="c" x="0.5" y="0.5" width="1920" height="1080"/><polygon class="d" points="1152.3 946.98 1290.13 830.19 1480.07 839.75 1340.18 1041.91 1144.76 948.34 1152.3 946.98"/><polygon class="e" points="1497.9 670.37 1480.07 839.75 1687.84 659.44 1497.9 670.37"/><polygon class="f" points="1911.04 892 1873.67 933.32 1598.7 1017.32 1576.76 1078.79 1719.04 1079.13 1724.87 1056.25 1877.44 935.71 1911.38 938.78 1911.04 892"/><path class="g" d="M1908.14,936.23v1.37l.68,142.06s-190.29,0-190.29-1,1.37-23.22,3.09-24.58,147.08-121.23,151.54-121.23S1908.14,936.23,1908.14,936.23Z" transform="translate(0.5 0.5)"/><path class="h" d="M1909.17,812.61l1.37,78.89-37.37,41.32-275,84-21.94,61.47-142.29,1,160.8-70s172.8-230.16,174.86-230.16S1909.17,812.61,1909.17,812.61Z" transform="translate(0.5 0.5)"/><polygon class="i" points="1911.04 736.28 1911.04 815.16 1770.81 781.01 1913.1 735.94 1911.04 736.28"/><polygon class="j" points="1769.44 781.36 1595.27 1009.81 1340.18 1042.25 1481.79 837.02 1769.44 781.36"/><polygon class="k" points="1283.96 1078.79 1340.18 1042.25 1595.27 1009.81 1434.47 1079.82 1283.96 1078.79"/><polygon class="l" points="1907.27 569.98 1684.41 660.81 1770.81 781.36 1914.47 735.94 1913.44 565.88 1907.27 569.98"/><path class="m" d="M1911.91,567.56c0-1-2.4-25.06-2.4-25.06L1768.6,489.57l-84.69,170.74Z" transform="translate(0.5 0.5)"/><polygon class="n" points="1483.16 837.02 1685.79 660.81 1772.18 781.01 1483.16 837.02"/><path class="o" d="M992.71,1078.29c6.86-2,292.8.68,292.8.68l54.18-37.22-193.38-94.93L991,1079" transform="translate(0.5 0.5)"/></g></svg>