<?xml version="1.0" encoding="utf-8"?>
<!-- Generator: Adobe Illustrator 24.1.3, SVG Export Plug-In . SVG Version: 6.00 Build 0)  -->
<svg version="1.1" xmlns="http://www.w3.org/2000/svg" xmlns:xlink="http://www.w3.org/1999/xlink" x="0px" y="0px"
	 viewBox="0 0 487 57" style="enable-background:new 0 0 487 57;" xml:space="preserve">
<style type="text/css">
	.st0{fill:url(#SVGID_1_);}
	.st1{fill:url(#SVGID_2_);}
	.st2{fill:url(#SVGID_3_);}
	.st3{fill:url(#SVGID_4_);}
	.st4{fill:url(#SVGID_5_);}
	.st5{fill:url(#SVGID_6_);}
	.st6{fill:url(#SVGID_7_);}
	.st7{fill:url(#SVGID_8_);}
	.st8{fill:url(#SVGID_9_);}
	.st9{fill:url(#SVGID_10_);}
	.st10{fill:url(#SVGID_11_);}
	.st11{fill:url(#SVGID_12_);}
	.st12{fill:url(#SVGID_13_);}
	.st13{fill:url(#SVGID_14_);}
	.st14{fill:url(#SVGID_15_);}
	.st15{fill:url(#SVGID_16_);}
	.st16{fill:url(#SVGID_17_);}
	.st17{fill:url(#SVGID_18_);}
	.st18{fill:#21212D;}
</style>
<g id="logoText">
	<g>
		<g>
			<g>
				<linearGradient id="SVGID_1_" gradientUnits="userSpaceOnUse" x1="13.0234" y1="29.8767" x2="473.5879" y2="29.8767">
					<stop  offset="0.0542" style="stop-color:#21212D"/>
					<stop  offset="0.1198" style="stop-color:#1F1C43"/>
					<stop  offset="0.2077" style="stop-color:#1C165B"/>
					<stop  offset="0.2621" style="stop-color:#1B1464"/>
					<stop  offset="0.4654" style="stop-color:#336699"/>
					<stop  offset="0.7504" style="stop-color:#A4844E"/>
					<stop  offset="0.7654" style="stop-color:#977843"/>
					<stop  offset="0.7945" style="stop-color:#856833"/>
					<stop  offset="0.829" style="stop-color:#785C27"/>
					<stop  offset="0.8738" style="stop-color:#705521"/>
					<stop  offset="0.9665" style="stop-color:#6E531F"/>
				</linearGradient>
				<path class="st0" d="M16.6,21.95c1.21-1.1,2.58-1.92,4.1-2.47s3.07-0.83,4.65-0.83c1.58,0,3.13,0.28,4.65,0.83
					s2.89,1.38,4.1,2.47l1.71,1.55l-3.41,3.15l-1.76-1.55c-0.73-0.67-1.56-1.17-2.47-1.5c-0.92-0.33-1.85-0.5-2.81-0.5
					c-0.95,0-1.89,0.17-2.8,0.5c-0.92,0.33-1.74,0.83-2.47,1.5c-0.73,0.63-1.28,1.37-1.65,2.2c-0.37,0.83-0.55,1.68-0.55,2.55
					c0,0.87,0.18,1.72,0.55,2.55c0.37,0.83,0.92,1.58,1.65,2.25c1.47,1.33,3.23,2,5.28,2c0.99,0,1.94-0.17,2.86-0.5
					c0.92-0.33,1.72-0.83,2.42-1.5l1.76-1.55l3.41,3.15l-1.71,1.55c-1.21,1.1-2.58,1.92-4.1,2.47s-3.07,0.83-4.65,0.83
					c-1.58,0-3.13-0.28-4.65-0.83s-2.89-1.38-4.1-2.47c-1.21-1.1-2.11-2.33-2.69-3.7c-0.59-1.37-0.88-2.78-0.88-4.22
					c0-1.45,0.29-2.86,0.88-4.23C14.49,24.29,15.39,23.05,16.6,21.95z"/>
				<linearGradient id="SVGID_2_" gradientUnits="userSpaceOnUse" x1="13.0234" y1="29.8767" x2="473.5879" y2="29.8767">
					<stop  offset="0.0542" style="stop-color:#21212D"/>
					<stop  offset="0.1198" style="stop-color:#1F1C43"/>
					<stop  offset="0.2077" style="stop-color:#1C165B"/>
					<stop  offset="0.2621" style="stop-color:#1B1464"/>
					<stop  offset="0.4654" style="stop-color:#336699"/>
					<stop  offset="0.7504" style="stop-color:#A4844E"/>
					<stop  offset="0.7654" style="stop-color:#977843"/>
					<stop  offset="0.7945" style="stop-color:#856833"/>
					<stop  offset="0.829" style="stop-color:#785C27"/>
					<stop  offset="0.8738" style="stop-color:#705521"/>
					<stop  offset="0.9665" style="stop-color:#6E531F"/>
				</linearGradient>
				<path class="st1" d="M52.57,18.65v4.45h-2.48c-1.03,0-1.99,0.17-2.89,0.53c-0.9,0.35-1.69,0.83-2.36,1.45
					c-0.68,0.62-1.21,1.33-1.6,2.15c-0.38,0.82-0.58,1.69-0.58,2.63V41.1h-4.95V29.85c0-1.57,0.32-3.03,0.96-4.38
					c0.64-1.35,1.53-2.53,2.67-3.55s2.46-1.82,3.96-2.4c1.5-0.58,3.1-0.88,4.79-0.88H52.57z"/>
				<linearGradient id="SVGID_3_" gradientUnits="userSpaceOnUse" x1="13.0234" y1="29.8767" x2="473.5879" y2="29.8767">
					<stop  offset="0.0542" style="stop-color:#21212D"/>
					<stop  offset="0.1198" style="stop-color:#1F1C43"/>
					<stop  offset="0.2077" style="stop-color:#1C165B"/>
					<stop  offset="0.2621" style="stop-color:#1B1464"/>
					<stop  offset="0.4654" style="stop-color:#336699"/>
					<stop  offset="0.7504" style="stop-color:#A4844E"/>
					<stop  offset="0.7654" style="stop-color:#977843"/>
					<stop  offset="0.7945" style="stop-color:#856833"/>
					<stop  offset="0.829" style="stop-color:#785C27"/>
					<stop  offset="0.8738" style="stop-color:#705521"/>
					<stop  offset="0.9665" style="stop-color:#6E531F"/>
				</linearGradient>
				<path class="st2" d="M73.36,33.2l3.46,3.15l-1.71,1.55c-1.17,1.07-2.51,1.88-4.01,2.45c-1.5,0.57-3.08,0.85-4.73,0.85
					c-1.65,0-3.23-0.28-4.73-0.85c-1.5-0.57-2.84-1.38-4.02-2.45c-1.21-1.1-2.11-2.34-2.69-3.72c-0.59-1.38-0.88-2.79-0.88-4.23
					c0-1.43,0.29-2.83,0.88-4.2c0.59-1.37,1.48-2.6,2.69-3.7c1.21-1.1,2.58-1.92,4.1-2.48c1.52-0.55,3.07-0.82,4.65-0.82
					c1.58,0,3.13,0.27,4.65,0.82c1.52,0.55,2.89,1.38,4.1,2.48l1.71,1.55l-13.7,12.45c1.39,0.63,2.87,0.84,4.43,0.63
					s2.92-0.86,4.1-1.92L73.36,33.2z M61.09,25.15c-1.47,1.33-2.2,2.93-2.2,4.8c0,1.03,0.26,2.02,0.77,2.95
					c0.44-0.4,1.11-1.01,2.01-1.83c0.9-0.82,1.85-1.68,2.86-2.6c1.01-0.92,1.98-1.79,2.91-2.63c0.94-0.83,1.66-1.48,2.17-1.95
					c-1.39-0.63-2.87-0.85-4.43-0.65C63.63,23.45,62.27,24.08,61.09,25.15z"/>
				<linearGradient id="SVGID_4_" gradientUnits="userSpaceOnUse" x1="13.0234" y1="29.8767" x2="473.5879" y2="29.8767">
					<stop  offset="0.0542" style="stop-color:#21212D"/>
					<stop  offset="0.1198" style="stop-color:#1F1C43"/>
					<stop  offset="0.2077" style="stop-color:#1C165B"/>
					<stop  offset="0.2621" style="stop-color:#1B1464"/>
					<stop  offset="0.4654" style="stop-color:#336699"/>
					<stop  offset="0.7504" style="stop-color:#A4844E"/>
					<stop  offset="0.7654" style="stop-color:#977843"/>
					<stop  offset="0.7945" style="stop-color:#856833"/>
					<stop  offset="0.829" style="stop-color:#785C27"/>
					<stop  offset="0.8738" style="stop-color:#705521"/>
					<stop  offset="0.9665" style="stop-color:#6E531F"/>
				</linearGradient>
				<path class="st3" d="M90.79,18.65c1.72,0,3.33,0.29,4.81,0.88c1.49,0.58,2.79,1.38,3.91,2.4c1.12,1.02,2,2.2,2.64,3.55
					c0.64,1.35,0.96,2.81,0.96,4.38V41.1H90.79c-1.69,0-3.28-0.29-4.79-0.88c-1.5-0.58-2.82-1.39-3.96-2.42
					c-1.14-1.03-2.03-2.23-2.67-3.6c-0.64-1.37-0.96-2.82-0.96-4.35c0-1.57,0.32-3.03,0.96-4.38c0.64-1.35,1.53-2.53,2.67-3.55
					c1.14-1.02,2.46-1.82,3.96-2.4C87.51,18.94,89.1,18.65,90.79,18.65z M98.22,36.65v-6.8c0-0.93-0.19-1.81-0.58-2.63
					c-0.38-0.82-0.92-1.53-1.6-2.15c-0.68-0.62-1.47-1.1-2.36-1.45c-0.9-0.35-1.86-0.53-2.89-0.53c-1.03,0-2,0.17-2.92,0.53
					c-0.92,0.35-1.71,0.83-2.39,1.45c-0.68,0.62-1.21,1.33-1.59,2.15c-0.38,0.82-0.58,1.69-0.58,2.63c0,0.93,0.19,1.82,0.58,2.65
					s0.92,1.56,1.59,2.17c0.68,0.62,1.48,1.1,2.39,1.45c0.92,0.35,1.89,0.52,2.92,0.52H98.22z"/>
				<linearGradient id="SVGID_5_" gradientUnits="userSpaceOnUse" x1="13.0234" y1="29.8767" x2="473.5879" y2="29.8767">
					<stop  offset="0.0542" style="stop-color:#21212D"/>
					<stop  offset="0.1198" style="stop-color:#1F1C43"/>
					<stop  offset="0.2077" style="stop-color:#1C165B"/>
					<stop  offset="0.2621" style="stop-color:#1B1464"/>
					<stop  offset="0.4654" style="stop-color:#336699"/>
					<stop  offset="0.7504" style="stop-color:#A4844E"/>
					<stop  offset="0.7654" style="stop-color:#977843"/>
					<stop  offset="0.7945" style="stop-color:#856833"/>
					<stop  offset="0.829" style="stop-color:#785C27"/>
					<stop  offset="0.8738" style="stop-color:#705521"/>
					<stop  offset="0.9665" style="stop-color:#6E531F"/>
				</linearGradient>
				<path class="st4" d="M119.34,36.65v4.45h-2.42c-1.69,0-3.28-0.29-4.79-0.88c-1.5-0.58-2.82-1.39-3.96-2.42
					c-1.14-1.03-2.03-2.23-2.67-3.6c-0.64-1.37-0.96-2.82-0.96-4.35V9.65h4.89v13.5h9.9v4.45h-9.9v2.25c0,0.93,0.19,1.82,0.58,2.65
					c0.38,0.83,0.92,1.56,1.59,2.17c0.68,0.62,1.48,1.1,2.39,1.45c0.92,0.35,1.89,0.52,2.92,0.52H119.34z"/>
				<linearGradient id="SVGID_6_" gradientUnits="userSpaceOnUse" x1="13.0234" y1="29.8767" x2="473.5879" y2="29.8767">
					<stop  offset="0.0542" style="stop-color:#21212D"/>
					<stop  offset="0.1198" style="stop-color:#1F1C43"/>
					<stop  offset="0.2077" style="stop-color:#1C165B"/>
					<stop  offset="0.2621" style="stop-color:#1B1464"/>
					<stop  offset="0.4654" style="stop-color:#336699"/>
					<stop  offset="0.7504" style="stop-color:#A4844E"/>
					<stop  offset="0.7654" style="stop-color:#977843"/>
					<stop  offset="0.7945" style="stop-color:#856833"/>
					<stop  offset="0.829" style="stop-color:#785C27"/>
					<stop  offset="0.8738" style="stop-color:#705521"/>
					<stop  offset="0.9665" style="stop-color:#6E531F"/>
				</linearGradient>
				<path class="st5" d="M125.99,18.65V41.1h-4.84V18.65H125.99z"/>
				<linearGradient id="SVGID_7_" gradientUnits="userSpaceOnUse" x1="13.0234" y1="29.8767" x2="473.5879" y2="29.8767">
					<stop  offset="0.0542" style="stop-color:#21212D"/>
					<stop  offset="0.1198" style="stop-color:#1F1C43"/>
					<stop  offset="0.2077" style="stop-color:#1C165B"/>
					<stop  offset="0.2621" style="stop-color:#1B1464"/>
					<stop  offset="0.4654" style="stop-color:#336699"/>
					<stop  offset="0.7504" style="stop-color:#A4844E"/>
					<stop  offset="0.7654" style="stop-color:#977843"/>
					<stop  offset="0.7945" style="stop-color:#856833"/>
					<stop  offset="0.829" style="stop-color:#785C27"/>
					<stop  offset="0.8738" style="stop-color:#705521"/>
					<stop  offset="0.9665" style="stop-color:#6E531F"/>
				</linearGradient>
				<path class="st6" d="M153.38,18.55l-12.87,22.5l-12.81-22.5h5.5c0.51,0.9,1.1,1.92,1.76,3.08c0.66,1.15,1.32,2.32,1.98,3.5
					c0.66,1.18,1.31,2.32,1.95,3.42c0.64,1.1,1.18,2.05,1.62,2.85c0.55-0.97,1.18-2.08,1.9-3.33c0.72-1.25,1.42-2.49,2.12-3.72
					c0.7-1.23,1.34-2.38,1.92-3.42c0.59-1.05,1.04-1.84,1.38-2.38H153.38z"/>
				<linearGradient id="SVGID_8_" gradientUnits="userSpaceOnUse" x1="13.0234" y1="29.8767" x2="473.5879" y2="29.8767">
					<stop  offset="0.0542" style="stop-color:#21212D"/>
					<stop  offset="0.1198" style="stop-color:#1F1C43"/>
					<stop  offset="0.2077" style="stop-color:#1C165B"/>
					<stop  offset="0.2621" style="stop-color:#1B1464"/>
					<stop  offset="0.4654" style="stop-color:#336699"/>
					<stop  offset="0.7504" style="stop-color:#A4844E"/>
					<stop  offset="0.7654" style="stop-color:#977843"/>
					<stop  offset="0.7945" style="stop-color:#856833"/>
					<stop  offset="0.829" style="stop-color:#785C27"/>
					<stop  offset="0.8738" style="stop-color:#705521"/>
					<stop  offset="0.9665" style="stop-color:#6E531F"/>
				</linearGradient>
				<path class="st7" d="M174.23,33.2l3.46,3.15l-1.71,1.55c-1.17,1.07-2.51,1.88-4.01,2.45c-1.5,0.57-3.08,0.85-4.73,0.85
					c-1.65,0-3.23-0.28-4.73-0.85c-1.5-0.57-2.84-1.38-4.02-2.45c-1.21-1.1-2.11-2.34-2.69-3.72c-0.59-1.38-0.88-2.79-0.88-4.23
					c0-1.43,0.29-2.83,0.88-4.2c0.59-1.37,1.48-2.6,2.69-3.7c1.21-1.1,2.58-1.92,4.1-2.48c1.52-0.55,3.07-0.82,4.65-0.82
					c1.58,0,3.13,0.27,4.65,0.82c1.52,0.55,2.89,1.38,4.1,2.48l1.71,1.55L164,36.05c1.39,0.63,2.87,0.84,4.43,0.63
					s2.92-0.86,4.1-1.92L174.23,33.2z M161.96,25.15c-1.47,1.33-2.2,2.93-2.2,4.8c0,1.03,0.26,2.02,0.77,2.95
					c0.44-0.4,1.11-1.01,2.01-1.83c0.9-0.82,1.85-1.68,2.86-2.6c1.01-0.92,1.98-1.79,2.91-2.63c0.94-0.83,1.66-1.48,2.17-1.95
					c-1.39-0.63-2.87-0.85-4.43-0.65C164.5,23.45,163.13,24.08,161.96,25.15z"/>
				<linearGradient id="SVGID_9_" gradientUnits="userSpaceOnUse" x1="13.0234" y1="29.8767" x2="473.5879" y2="29.8767">
					<stop  offset="0.0542" style="stop-color:#21212D"/>
					<stop  offset="0.1198" style="stop-color:#1F1C43"/>
					<stop  offset="0.2077" style="stop-color:#1C165B"/>
					<stop  offset="0.2621" style="stop-color:#1B1464"/>
					<stop  offset="0.4654" style="stop-color:#336699"/>
					<stop  offset="0.7504" style="stop-color:#A4844E"/>
					<stop  offset="0.7654" style="stop-color:#977843"/>
					<stop  offset="0.7945" style="stop-color:#856833"/>
					<stop  offset="0.829" style="stop-color:#785C27"/>
					<stop  offset="0.8738" style="stop-color:#705521"/>
					<stop  offset="0.9665" style="stop-color:#6E531F"/>
				</linearGradient>
				<path class="st8" d="M210.47,21.95c1.21-1.1,2.58-1.92,4.1-2.47s3.07-0.83,4.65-0.83c1.58,0,3.13,0.28,4.65,0.83
					s2.89,1.38,4.1,2.47l1.71,1.55l-3.41,3.15l-1.76-1.55c-0.73-0.67-1.56-1.17-2.47-1.5c-0.92-0.33-1.85-0.5-2.81-0.5
					c-0.95,0-1.89,0.17-2.8,0.5c-0.92,0.33-1.74,0.83-2.47,1.5c-0.73,0.63-1.28,1.37-1.65,2.2c-0.37,0.83-0.55,1.68-0.55,2.55
					c0,0.87,0.18,1.72,0.55,2.55c0.37,0.83,0.92,1.58,1.65,2.25c1.47,1.33,3.23,2,5.28,2c0.99,0,1.94-0.17,2.86-0.5
					c0.92-0.33,1.72-0.83,2.42-1.5l1.76-1.55l3.41,3.15l-1.71,1.55c-1.21,1.1-2.58,1.92-4.1,2.47s-3.07,0.83-4.65,0.83
					c-1.58,0-3.13-0.28-4.65-0.83s-2.89-1.38-4.1-2.47c-1.21-1.1-2.11-2.33-2.69-3.7c-0.59-1.37-0.88-2.78-0.88-4.22
					c0-1.45,0.29-2.86,0.88-4.23C208.36,24.29,209.26,23.05,210.47,21.95z"/>
				<linearGradient id="SVGID_10_" gradientUnits="userSpaceOnUse" x1="13.0234" y1="29.8767" x2="473.5879" y2="29.8767">
					<stop  offset="0.0542" style="stop-color:#21212D"/>
					<stop  offset="0.1198" style="stop-color:#1F1C43"/>
					<stop  offset="0.2077" style="stop-color:#1C165B"/>
					<stop  offset="0.2621" style="stop-color:#1B1464"/>
					<stop  offset="0.4654" style="stop-color:#336699"/>
					<stop  offset="0.7504" style="stop-color:#A4844E"/>
					<stop  offset="0.7654" style="stop-color:#977843"/>
					<stop  offset="0.7945" style="stop-color:#856833"/>
					<stop  offset="0.829" style="stop-color:#785C27"/>
					<stop  offset="0.8738" style="stop-color:#705521"/>
					<stop  offset="0.9665" style="stop-color:#6E531F"/>
				</linearGradient>
				<path class="st9" d="M231.59,29.95c0-1.57,0.32-3.02,0.96-4.38c0.64-1.35,1.52-2.53,2.64-3.55c1.12-1.02,2.43-1.82,3.93-2.4
					c1.5-0.58,3.1-0.88,4.79-0.88c1.72,0,3.33,0.29,4.81,0.88s2.8,1.38,3.93,2.4c1.14,1.02,2.03,2.2,2.67,3.55
					c0.64,1.35,0.96,2.81,0.96,4.38c0,1.53-0.32,2.98-0.96,4.35c-0.64,1.37-1.53,2.57-2.67,3.6c-1.14,1.03-2.45,1.84-3.93,2.42
					c-1.49,0.58-3.09,0.88-4.81,0.88c-1.69,0-3.28-0.29-4.79-0.88c-1.5-0.58-2.81-1.39-3.93-2.42c-1.12-1.03-2-2.23-2.64-3.6
					C231.91,32.94,231.59,31.49,231.59,29.95z M236.43,29.95c0,0.93,0.19,1.82,0.58,2.65c0.38,0.83,0.92,1.56,1.59,2.17
					c0.68,0.62,1.48,1.1,2.39,1.45c0.92,0.35,1.89,0.53,2.92,0.53c1.03,0,2-0.18,2.92-0.53c0.92-0.35,1.71-0.83,2.39-1.45
					c0.68-0.62,1.21-1.34,1.59-2.17c0.38-0.83,0.58-1.72,0.58-2.65c0-0.93-0.19-1.81-0.58-2.63c-0.38-0.82-0.92-1.53-1.59-2.15
					c-0.68-0.62-1.48-1.1-2.39-1.45c-0.92-0.35-1.89-0.53-2.92-0.53c-1.03,0-2,0.18-2.92,0.53c-0.92,0.35-1.71,0.83-2.39,1.45
					c-0.68,0.62-1.21,1.33-1.59,2.15C236.62,28.14,236.43,29.02,236.43,29.95z"/>
				<linearGradient id="SVGID_11_" gradientUnits="userSpaceOnUse" x1="13.0234" y1="29.8767" x2="473.5879" y2="29.8767">
					<stop  offset="0.0542" style="stop-color:#21212D"/>
					<stop  offset="0.1198" style="stop-color:#1F1C43"/>
					<stop  offset="0.2077" style="stop-color:#1C165B"/>
					<stop  offset="0.2621" style="stop-color:#1B1464"/>
					<stop  offset="0.4654" style="stop-color:#336699"/>
					<stop  offset="0.7504" style="stop-color:#A4844E"/>
					<stop  offset="0.7654" style="stop-color:#977843"/>
					<stop  offset="0.7945" style="stop-color:#856833"/>
					<stop  offset="0.829" style="stop-color:#785C27"/>
					<stop  offset="0.8738" style="stop-color:#705521"/>
					<stop  offset="0.9665" style="stop-color:#6E531F"/>
				</linearGradient>
				<path class="st10" d="M270.25,18.65c1.72,0,3.33,0.29,4.81,0.88c1.49,0.58,2.79,1.38,3.91,2.4c1.12,1.02,2,2.2,2.64,3.55
					c0.64,1.35,0.96,2.81,0.96,4.38v9c0,1.57-0.32,3.03-0.96,4.38c-0.64,1.35-1.52,2.54-2.64,3.58c-1.12,1.03-2.42,1.84-3.91,2.42
					c-1.48,0.58-3.09,0.88-4.81,0.88h-2.47v-4.45h2.47c1.65,0,3.11-0.42,4.37-1.27c1.26-0.85,2.15-1.94,2.67-3.28h-7.04
					c-1.69,0-3.28-0.29-4.78-0.88c-1.5-0.58-2.82-1.39-3.96-2.42c-1.14-1.03-2.03-2.23-2.67-3.6c-0.64-1.37-0.96-2.82-0.96-4.35
					c0-1.57,0.32-3.03,0.96-4.38s1.53-2.53,2.67-3.55c1.14-1.02,2.46-1.82,3.96-2.4C266.97,18.94,268.57,18.65,270.25,18.65z
					 M262.77,29.85c0,0.93,0.19,1.82,0.58,2.65c0.39,0.83,0.92,1.56,1.6,2.17c0.68,0.62,1.48,1.1,2.39,1.45
					c0.92,0.35,1.89,0.52,2.92,0.52h7.48v-6.8c0-0.93-0.19-1.81-0.58-2.63c-0.39-0.82-0.92-1.53-1.6-2.15
					c-0.68-0.62-1.48-1.1-2.39-1.45c-0.92-0.35-1.89-0.53-2.92-0.53s-2,0.17-2.92,0.53c-0.92,0.35-1.71,0.83-2.39,1.45
					c-0.68,0.62-1.21,1.33-1.6,2.15C262.97,28.04,262.77,28.92,262.77,29.85z"/>
				<linearGradient id="SVGID_12_" gradientUnits="userSpaceOnUse" x1="13.0234" y1="29.8767" x2="473.5879" y2="29.8767">
					<stop  offset="0.0542" style="stop-color:#21212D"/>
					<stop  offset="0.1198" style="stop-color:#1F1C43"/>
					<stop  offset="0.2077" style="stop-color:#1C165B"/>
					<stop  offset="0.2621" style="stop-color:#1B1464"/>
					<stop  offset="0.4654" style="stop-color:#336699"/>
					<stop  offset="0.7504" style="stop-color:#A4844E"/>
					<stop  offset="0.7654" style="stop-color:#977843"/>
					<stop  offset="0.7945" style="stop-color:#856833"/>
					<stop  offset="0.829" style="stop-color:#785C27"/>
					<stop  offset="0.8738" style="stop-color:#705521"/>
					<stop  offset="0.9665" style="stop-color:#6E531F"/>
				</linearGradient>
				<path class="st11" d="M363.86,9.65v20.2c0,1.53-0.32,2.98-0.96,4.35c-0.64,1.37-1.52,2.57-2.64,3.6
					c-1.12,1.03-2.43,1.84-3.93,2.42c-1.5,0.58-3.1,0.88-4.79,0.88s-3.28-0.29-4.79-0.88c-1.5-0.58-2.82-1.39-3.96-2.42
					s-2.03-2.23-2.67-3.6c-0.64-1.37-0.96-2.82-0.96-4.35c0-1.57,0.32-3.03,0.96-4.38c0.64-1.35,1.53-2.53,2.67-3.55
					s2.46-1.82,3.96-2.4c1.5-0.58,3.1-0.88,4.79-0.88h7.42v-9H363.86z M351.54,36.65c1.03,0,1.99-0.17,2.89-0.52
					c0.9-0.35,1.69-0.83,2.37-1.45c0.68-0.62,1.21-1.34,1.59-2.17s0.58-1.72,0.58-2.65V23.1h-7.42c-1.03,0-2,0.17-2.92,0.53
					c-0.92,0.35-1.71,0.83-2.39,1.45c-0.68,0.62-1.21,1.33-1.59,2.15c-0.38,0.82-0.58,1.69-0.58,2.63c0,0.93,0.19,1.82,0.58,2.65
					s0.92,1.56,1.59,2.17c0.68,0.62,1.48,1.1,2.39,1.45C349.54,36.48,350.52,36.65,351.54,36.65z"/>
				<linearGradient id="SVGID_13_" gradientUnits="userSpaceOnUse" x1="13.0234" y1="29.8767" x2="473.5879" y2="29.8767">
					<stop  offset="0.0542" style="stop-color:#21212D"/>
					<stop  offset="0.1198" style="stop-color:#1F1C43"/>
					<stop  offset="0.2077" style="stop-color:#1C165B"/>
					<stop  offset="0.2621" style="stop-color:#1B1464"/>
					<stop  offset="0.4654" style="stop-color:#336699"/>
					<stop  offset="0.7504" style="stop-color:#A4844E"/>
					<stop  offset="0.7654" style="stop-color:#977843"/>
					<stop  offset="0.7945" style="stop-color:#856833"/>
					<stop  offset="0.829" style="stop-color:#785C27"/>
					<stop  offset="0.8738" style="stop-color:#705521"/>
					<stop  offset="0.9665" style="stop-color:#6E531F"/>
				</linearGradient>
				<path class="st12" d="M384.93,33.2l3.47,3.15l-1.71,1.55c-1.17,1.07-2.51,1.88-4.02,2.45c-1.5,0.57-3.08,0.85-4.73,0.85
					c-1.65,0-3.23-0.28-4.73-0.85c-1.5-0.57-2.84-1.38-4.01-2.45c-1.21-1.1-2.11-2.34-2.7-3.72c-0.59-1.38-0.88-2.79-0.88-4.23
					c0-1.43,0.29-2.83,0.88-4.2c0.59-1.37,1.49-2.6,2.7-3.7c1.21-1.1,2.58-1.92,4.1-2.48c1.52-0.55,3.07-0.82,4.65-0.82
					c1.58,0,3.13,0.27,4.65,0.82c1.52,0.55,2.89,1.38,4.1,2.48l1.71,1.55l-13.7,12.45c1.39,0.63,2.87,0.84,4.43,0.63
					c1.56-0.22,2.92-0.86,4.1-1.92L384.93,33.2z M372.66,25.15c-1.47,1.33-2.2,2.93-2.2,4.8c0,1.03,0.26,2.02,0.77,2.95
					c0.44-0.4,1.11-1.01,2.01-1.83c0.9-0.82,1.85-1.68,2.86-2.6c1.01-0.92,1.98-1.79,2.92-2.63c0.93-0.83,1.66-1.48,2.17-1.95
					c-1.39-0.63-2.87-0.85-4.43-0.65C375.2,23.45,373.84,24.08,372.66,25.15z"/>
				<linearGradient id="SVGID_14_" gradientUnits="userSpaceOnUse" x1="13.0234" y1="29.8767" x2="473.5879" y2="29.8767">
					<stop  offset="0.0542" style="stop-color:#21212D"/>
					<stop  offset="0.1198" style="stop-color:#1F1C43"/>
					<stop  offset="0.2077" style="stop-color:#1C165B"/>
					<stop  offset="0.2621" style="stop-color:#1B1464"/>
					<stop  offset="0.4654" style="stop-color:#336699"/>
					<stop  offset="0.7504" style="stop-color:#A4844E"/>
					<stop  offset="0.7654" style="stop-color:#977843"/>
					<stop  offset="0.7945" style="stop-color:#856833"/>
					<stop  offset="0.829" style="stop-color:#785C27"/>
					<stop  offset="0.8738" style="stop-color:#705521"/>
					<stop  offset="0.9665" style="stop-color:#6E531F"/>
				</linearGradient>
				<path class="st13" d="M412.26,18.65v4.45h-14.91c-0.7,0-1.28,0.22-1.76,0.65s-0.71,0.97-0.71,1.6c0,0.63,0.24,1.17,0.71,1.63
					s1.06,0.67,1.76,0.67h9.9c1.03,0,1.99,0.17,2.89,0.53c0.9,0.35,1.69,0.83,2.37,1.42c0.68,0.6,1.21,1.31,1.59,2.13
					c0.38,0.82,0.58,1.69,0.58,2.63c0,0.93-0.19,1.81-0.58,2.63c-0.38,0.82-0.92,1.53-1.59,2.15c-0.68,0.62-1.47,1.1-2.37,1.45
					c-0.9,0.35-1.86,0.53-2.89,0.53h-14.85v-4.45h14.85c0.73,0,1.34-0.22,1.82-0.65c0.47-0.43,0.71-0.98,0.71-1.65
					c0-0.63-0.24-1.17-0.71-1.6c-0.48-0.43-1.08-0.65-1.82-0.65h-9.9c-1.03,0-1.99-0.17-2.89-0.53c-0.9-0.35-1.68-0.83-2.34-1.45
					s-1.18-1.33-1.57-2.15c-0.38-0.82-0.58-1.69-0.58-2.63c0-0.93,0.19-1.81,0.58-2.63c0.38-0.82,0.91-1.53,1.57-2.13
					s1.44-1.08,2.34-1.42c0.9-0.35,1.86-0.53,2.89-0.53H412.26z"/>
				<linearGradient id="SVGID_15_" gradientUnits="userSpaceOnUse" x1="13.0234" y1="29.8767" x2="473.5879" y2="29.8767">
					<stop  offset="0.0542" style="stop-color:#21212D"/>
					<stop  offset="0.1198" style="stop-color:#1F1C43"/>
					<stop  offset="0.2077" style="stop-color:#1C165B"/>
					<stop  offset="0.2621" style="stop-color:#1B1464"/>
					<stop  offset="0.4654" style="stop-color:#336699"/>
					<stop  offset="0.7504" style="stop-color:#A4844E"/>
					<stop  offset="0.7654" style="stop-color:#977843"/>
					<stop  offset="0.7945" style="stop-color:#856833"/>
					<stop  offset="0.829" style="stop-color:#785C27"/>
					<stop  offset="0.8738" style="stop-color:#705521"/>
					<stop  offset="0.9665" style="stop-color:#6E531F"/>
				</linearGradient>
				<path class="st14" d="M421.12,18.65V41.1h-4.84V18.65H421.12z"/>
				<linearGradient id="SVGID_16_" gradientUnits="userSpaceOnUse" x1="13.0234" y1="29.8767" x2="473.5879" y2="29.8767">
					<stop  offset="0.0542" style="stop-color:#21212D"/>
					<stop  offset="0.1198" style="stop-color:#1F1C43"/>
					<stop  offset="0.2077" style="stop-color:#1C165B"/>
					<stop  offset="0.2621" style="stop-color:#1B1464"/>
					<stop  offset="0.4654" style="stop-color:#336699"/>
					<stop  offset="0.7504" style="stop-color:#A4844E"/>
					<stop  offset="0.7654" style="stop-color:#977843"/>
					<stop  offset="0.7945" style="stop-color:#856833"/>
					<stop  offset="0.829" style="stop-color:#785C27"/>
					<stop  offset="0.8738" style="stop-color:#705521"/>
					<stop  offset="0.9665" style="stop-color:#6E531F"/>
				</linearGradient>
				<path class="st15" d="M435.03,18.65c1.72,0,3.33,0.29,4.81,0.88c1.48,0.58,2.79,1.38,3.9,2.4s2,2.2,2.64,3.55
					c0.64,1.35,0.96,2.81,0.96,4.38v9c0,1.57-0.32,3.03-0.96,4.38c-0.64,1.35-1.52,2.54-2.64,3.58c-1.12,1.03-2.42,1.84-3.9,2.42
					c-1.49,0.58-3.09,0.88-4.81,0.88h-2.48v-4.45h2.48c1.65,0,3.11-0.42,4.37-1.27c1.26-0.85,2.15-1.94,2.67-3.28h-7.04
					c-1.69,0-3.28-0.29-4.79-0.88c-1.5-0.58-2.82-1.39-3.96-2.42c-1.14-1.03-2.03-2.23-2.67-3.6c-0.64-1.37-0.96-2.82-0.96-4.35
					c0-1.57,0.32-3.03,0.96-4.38s1.53-2.53,2.67-3.55c1.14-1.02,2.46-1.82,3.96-2.4C431.75,18.94,433.35,18.65,435.03,18.65z
					 M427.55,29.85c0,0.93,0.19,1.82,0.58,2.65c0.38,0.83,0.92,1.56,1.59,2.17c0.68,0.62,1.48,1.1,2.39,1.45
					c0.92,0.35,1.89,0.52,2.92,0.52h7.48v-6.8c0-0.93-0.19-1.81-0.58-2.63c-0.38-0.82-0.92-1.53-1.59-2.15
					c-0.68-0.62-1.48-1.1-2.39-1.45c-0.92-0.35-1.89-0.53-2.92-0.53c-1.03,0-2,0.17-2.92,0.53c-0.92,0.35-1.71,0.83-2.39,1.45
					c-0.68,0.62-1.21,1.33-1.59,2.15C427.75,28.04,427.55,28.92,427.55,29.85z"/>
				<linearGradient id="SVGID_17_" gradientUnits="userSpaceOnUse" x1="13.0234" y1="29.8767" x2="473.5879" y2="29.8767">
					<stop  offset="0.0542" style="stop-color:#21212D"/>
					<stop  offset="0.1198" style="stop-color:#1F1C43"/>
					<stop  offset="0.2077" style="stop-color:#1C165B"/>
					<stop  offset="0.2621" style="stop-color:#1B1464"/>
					<stop  offset="0.4654" style="stop-color:#336699"/>
					<stop  offset="0.7504" style="stop-color:#A4844E"/>
					<stop  offset="0.7654" style="stop-color:#977843"/>
					<stop  offset="0.7945" style="stop-color:#856833"/>
					<stop  offset="0.829" style="stop-color:#785C27"/>
					<stop  offset="0.8738" style="stop-color:#705521"/>
					<stop  offset="0.9665" style="stop-color:#6E531F"/>
				</linearGradient>
				<path class="st16" d="M449.86,25.53c0.64-1.35,1.52-2.53,2.64-3.55c1.12-1.02,2.43-1.82,3.93-2.4c1.5-0.58,3.1-0.88,4.79-0.88
					c1.72,0,3.33,0.29,4.81,0.88c1.48,0.58,2.79,1.38,3.93,2.4c1.14,1.02,2.03,2.2,2.67,3.55c0.64,1.35,0.96,2.81,0.96,4.38v11.25
					h-4.9V29.9c0-0.93-0.19-1.81-0.58-2.63c-0.38-0.82-0.92-1.53-1.59-2.15c-0.68-0.62-1.48-1.1-2.39-1.45
					c-0.92-0.35-1.89-0.53-2.92-0.53c-1.03,0-1.99,0.17-2.89,0.53c-0.9,0.35-1.69,0.83-2.37,1.45c-0.68,0.62-1.21,1.33-1.59,2.15
					c-0.38,0.82-0.58,1.69-0.58,2.63v11.25h-4.89V29.9C448.89,28.33,449.21,26.88,449.86,25.53z"/>
			</g>
			<g>
				<linearGradient id="SVGID_18_" gradientUnits="userSpaceOnUse" x1="13.0234" y1="29.8767" x2="473.5879" y2="29.8767">
					<stop  offset="0.0542" style="stop-color:#21212D"/>
					<stop  offset="0.1198" style="stop-color:#1F1C43"/>
					<stop  offset="0.2077" style="stop-color:#1C165B"/>
					<stop  offset="0.2621" style="stop-color:#1B1464"/>
					<stop  offset="0.4654" style="stop-color:#336699"/>
					<stop  offset="0.7504" style="stop-color:#A4844E"/>
					<stop  offset="0.7654" style="stop-color:#977843"/>
					<stop  offset="0.7945" style="stop-color:#856833"/>
					<stop  offset="0.829" style="stop-color:#785C27"/>
					<stop  offset="0.8738" style="stop-color:#705521"/>
					<stop  offset="0.9665" style="stop-color:#6E531F"/>
				</linearGradient>
				<path class="st17" d="M307.92,30.6c0-2.5,1.8-4.25,4.05-4.25s4.05,1.75,4.05,4.25c0,2.55-1.8,4.25-4.05,4.25
					S307.92,33.15,307.92,30.6z"/>
			</g>
		</g>
	</g>
	<rect x="33" y="136" class="st18" width="101" height="107"/>
</g>
<g id="Layer_5">
</g>
</svg>
