<svg xmlns="http://www.w3.org/2000/svg" viewBox="0 0 460.56 40.45"><defs><linearGradient id="A" x1="13.02" y1="29.88" x2="473.59" y2="29.88" gradientUnits="userSpaceOnUse"><stop offset=".02" stop-color="#3f4756"/><stop offset=".03" stop-color="#3f4757"/><stop offset=".26" stop-color="#3b516d"/><stop offset=".42" stop-color="#3a5575"/><stop offset=".7" stop-color="#a4844e"/><stop offset=".77" stop-color="#9c7c47"/><stop offset=".88" stop-color="#856833"/><stop offset=".97" stop-color="#6e531f"/></linearGradient></defs><g transform="translate(-13.02 -9.65)" fill="url(#A)"><path d="M16.6 22a12.12 12.12 0 0 1 4.1-2.47 13.41 13.41 0 0 1 9.29 0 12.22 12.22 0 0 1 4.1 2.47l1.7 1.55-3.4 3.15-1.76-1.6a7.65 7.65 0 0 0-2.47-1.5 8.12 8.12 0 0 0-5.61 0 7.7 7.7 0 0 0-2.48 1.5 6.21 6.21 0 0 0-1.65 7.3 6.61 6.61 0 0 0 1.65 2.25 7.56 7.56 0 0 0 5.28 2 8.12 8.12 0 0 0 2.86-.5 6.66 6.66 0 0 0 2.42-1.5l1.76-1.55 3.4 3.15-1.7 1.55A12.25 12.25 0 0 1 30 40.28a13.57 13.57 0 0 1-9.29 0 12.15 12.15 0 0 1-4.1-2.48A10.56 10.56 0 0 1 16.6 22z"/><path d="M52.57 18.65v4.45H50.1a7.84 7.84 0 0 0-2.88.53 7.52 7.52 0 0 0-2.37 1.45 6.58 6.58 0 0 0-1.59 2.15 6 6 0 0 0-.58 2.62V41.1h-5V29.85a10.08 10.08 0 0 1 1-4.37 11 11 0 0 1 2.67-3.55 12.57 12.57 0 0 1 4-2.4 13 13 0 0 1 4.78-.88z"/><path d="M73.36 33.2l3.46 3.15-1.7 1.55a12.28 12.28 0 0 1-4 2.45 13.59 13.59 0 0 1-9.46 0 12.24 12.24 0 0 1-4-2.45 10.69 10.69 0 0 1-2.7-3.72 10.91 10.91 0 0 1-.91-4.18 10.54 10.54 0 0 1 3.58-7.9 12.18 12.18 0 0 1 4.09-2.47 13.44 13.44 0 0 1 9.3 0 12.22 12.22 0 0 1 4.1 2.47l1.7 1.55-13.7 12.4a7.85 7.85 0 0 0 4.42.63 7.49 7.49 0 0 0 4.1-1.93zM61.1 25.15a6.29 6.29 0 0 0-2.2 4.8 6 6 0 0 0 .77 2.95l4.86-4.42 2.9-2.63 2.18-2a8.07 8.07 0 0 0-4.43-.65 7.35 7.35 0 0 0-4.09 1.95z"/><path d="M90.8 18.65a12.89 12.89 0 0 1 4.81.88 12.44 12.44 0 0 1 3.91 2.4 11.2 11.2 0 0 1 2.64 3.55 10.08 10.08 0 0 1 1 4.37V41.1H90.8a13.12 13.12 0 0 1-4.79-.87 12.65 12.65 0 0 1-4-2.43 11.2 11.2 0 0 1-2.67-3.6 10.38 10.38 0 0 1 0-8.72A11 11 0 0 1 82 21.93a12.57 12.57 0 0 1 4-2.4 12.92 12.92 0 0 1 4.79-.88zm7.43 18v-6.8a6.12 6.12 0 0 0-.58-2.62A6.75 6.75 0 0 0 96 25.08a7.36 7.36 0 0 0-2.36-1.45 7.89 7.89 0 0 0-2.89-.53 8 8 0 0 0-2.91.53 7.44 7.44 0 0 0-2.4 1.45 6.72 6.72 0 0 0-1.59 2.15 6 6 0 0 0-.58 2.62 6.14 6.14 0 0 0 .58 2.65 6.85 6.85 0 0 0 1.59 2.18 7.62 7.62 0 0 0 2.4 1.45 8 8 0 0 0 2.91.52z"/><path d="M119.34 36.65v4.45h-2.42a13.18 13.18 0 0 1-4.79-.87 12.88 12.88 0 0 1-4-2.43 11.5 11.5 0 0 1-2.67-3.6 10.15 10.15 0 0 1-1-4.35V9.65h4.9v13.5h9.9v4.45h-9.9v2.25a6.28 6.28 0 0 0 .64 2.65 6.87 6.87 0 0 0 1.6 2.18 7.57 7.57 0 0 0 2.4 1.45 8.13 8.13 0 0 0 2.92.52z"/><path d="M126,18.65V41.1h-4.84V18.65Z"/><path d="M153.38 18.55l-12.87 22.5-12.8-22.5h5.5l1.8 3.08 3.95 6.92 1.62 2.85 1.9-3.32 2.12-3.73 1.92-3.42 1.38-2.38z"/><path d="M174.23 33.2l3.46 3.15-1.7 1.55a12.38 12.38 0 0 1-4 2.45 13.59 13.59 0 0 1-9.46 0 12.24 12.24 0 0 1-4-2.45 10.63 10.63 0 0 1-3.62-7.9 10.52 10.52 0 0 1 .88-4.2 10.71 10.71 0 0 1 2.7-3.7 12.18 12.18 0 0 1 4.09-2.47 13.44 13.44 0 0 1 9.3 0 12.22 12.22 0 0 1 4.1 2.47l1.7 1.55-13.7 12.4a7.84 7.84 0 0 0 4.42.63 7.49 7.49 0 0 0 4.1-1.93zM162 25.15a6.26 6.26 0 0 0-2.2 4.8 6 6 0 0 0 .77 2.95l4.86-4.42 2.9-2.63 2.18-2a8.07 8.07 0 0 0-4.43-.65 7.32 7.32 0 0 0-4.09 1.95z"/><path d="M210.47 22a12.22 12.22 0 0 1 4.1-2.47 13.41 13.41 0 0 1 9.29 0A12.22 12.22 0 0 1 228 22l1.7 1.55-3.42 3.15-1.8-1.6a7.7 7.7 0 0 0-2.5-1.5 8.12 8.12 0 0 0-5.61 0 7.55 7.55 0 0 0-2.47 1.5 6.11 6.11 0 0 0-1.65 2.2 6.19 6.19 0 0 0 0 5.1 6.36 6.36 0 0 0 1.65 2.25 7.52 7.52 0 0 0 5.27 2 8.18 8.18 0 0 0 2.87-.5 6.84 6.84 0 0 0 2.42-1.5l1.75-1.55 3.42 3.15L228 37.8a12.25 12.25 0 0 1-4.1 2.48 13.57 13.57 0 0 1-9.29 0 12.25 12.25 0 0 1-4.1-2.48 10.58 10.58 0 0 1 0-15.85z"/><path d="M231.6 30a10 10 0 0 1 1-4.37 11.2 11.2 0 0 1 2.6-3.63 12.37 12.37 0 0 1 3.94-2.4 13.21 13.21 0 0 1 13.53 2.4 11.12 11.12 0 0 1 2.66 3.55 10.28 10.28 0 0 1 0 8.72 11.31 11.31 0 0 1-2.66 3.6 12.71 12.71 0 0 1-3.94 2.43 13.65 13.65 0 0 1-9.59 0 12.26 12.26 0 0 1-3.94-2.43 11.41 11.41 0 0 1-2.64-3.6 10.09 10.09 0 0 1-.96-4.27zm4.84 0a6.17 6.17 0 0 0 .57 2.6 6.59 6.59 0 0 0 1.59 2.18 7.62 7.62 0 0 0 2.4 1.45 8 8 0 0 0 2.91.52 8.13 8.13 0 0 0 2.92-.52 7.69 7.69 0 0 0 2.39-1.45 6.59 6.59 0 0 0 1.59-2.18 6.17 6.17 0 0 0 .58-2.65 6 6 0 0 0-.58-2.62 6.58 6.58 0 0 0-1.59-2.15 7.5 7.5 0 0 0-2.39-1.45 8.13 8.13 0 0 0-2.92-.53 8 8 0 0 0-2.91.53 7.44 7.44 0 0 0-2.4 1.45 6.58 6.58 0 0 0-1.59 2.15 6 6 0 0 0-.57 2.67z"/><path d="M270.25 18.65a13 13 0 0 1 4.82.88 12.51 12.51 0 0 1 3.9 2.4 11.2 11.2 0 0 1 2.64 3.55 10.08 10.08 0 0 1 1 4.37v9a10.09 10.09 0 0 1-1 4.38A11.51 11.51 0 0 1 279 46.8a12.59 12.59 0 0 1-3.9 2.43 13.15 13.15 0 0 1-4.82.87h-2.47v-4.45h2.47a7.69 7.69 0 0 0 4.38-1.27 6.88 6.88 0 0 0 2.66-3.28h-7a13.16 13.16 0 0 1-4.78-.87 12.88 12.88 0 0 1-4-2.43 11.2 11.2 0 0 1-2.67-3.6 10.38 10.38 0 0 1 0-8.72 11 11 0 0 1 2.67-3.55 12.8 12.8 0 0 1 4-2.4 13 13 0 0 1 4.71-.88zm-7.48 11.2a6.29 6.29 0 0 0 .58 2.65 6.87 6.87 0 0 0 1.6 2.18 7.57 7.57 0 0 0 2.39 1.45 8.11 8.11 0 0 0 2.91.52h7.48v-6.8a6.11 6.11 0 0 0-.57-2.62 6.75 6.75 0 0 0-1.6-2.15 7.5 7.5 0 0 0-2.39-1.45 8.28 8.28 0 0 0-5.83 0 7.4 7.4 0 0 0-2.34 1.45 6.75 6.75 0 0 0-1.6 2.15 6.12 6.12 0 0 0-.63 2.62z"/><path d="M363.86 9.65v20.2a10.15 10.15 0 0 1-1 4.35 11.41 11.41 0 0 1-2.64 3.6 12.5 12.5 0 0 1-3.93 2.43 13.59 13.59 0 0 1-9.57 0 12.76 12.76 0 0 1-4-2.43 11.2 11.2 0 0 1-2.67-3.6 10.38 10.38 0 0 1 0-8.72 11 11 0 0 1 2.67-3.55 12.69 12.69 0 0 1 4-2.4 13 13 0 0 1 4.78-.88h7.5v-9zm-12.32 27a7.89 7.89 0 0 0 2.89-.52 7.71 7.71 0 0 0 2.37-1.45 6.85 6.85 0 0 0 1.59-2.18 6.14 6.14 0 0 0 .58-2.65V23.1h-7.43a8.08 8.08 0 0 0-2.91.53 7.4 7.4 0 0 0-2.39 1.45 6.75 6.75 0 0 0-1.6 2.15 6.12 6.12 0 0 0-.58 2.62 6.29 6.29 0 0 0 .58 2.65 6.87 6.87 0 0 0 1.6 2.18 7.57 7.57 0 0 0 2.39 1.45 8.07 8.07 0 0 0 2.91.52z"/><path d="M384.93 33.2l3.46 3.15-1.7 1.55a12.28 12.28 0 0 1-4 2.45 13.59 13.59 0 0 1-9.46 0 12.24 12.24 0 0 1-4-2.45 10.69 10.69 0 0 1-2.7-3.72 10.91 10.91 0 0 1-.88-4.23 10.54 10.54 0 0 1 3.58-7.9 12.12 12.12 0 0 1 4.1-2.47 13.41 13.41 0 0 1 9.29 0 12.22 12.22 0 0 1 4.1 2.47l1.7 1.55-13.72 12.45a7.87 7.87 0 0 0 4.43.63 7.5 7.5 0 0 0 4.09-1.93zm-12.27-8.05a6.29 6.29 0 0 0-2.2 4.8 6 6 0 0 0 .77 2.95l4.86-4.42 2.92-2.63 2.17-2a8.07 8.07 0 0 0-4.43-.65 7.35 7.35 0 0 0-4.09 1.95z"/><path d="M412.26 18.65v4.45h-14.9a2.52 2.52 0 0 0-1.76.65 2.09 2.09 0 0 0-.72 1.6 2.15 2.15 0 0 0 .72 1.65 2.45 2.45 0 0 0 1.76.67h9.9a7.94 7.94 0 0 1 5.25 2 6.4 6.4 0 0 1 1.59 2.13 6.23 6.23 0 0 1 0 5.25 6.8 6.8 0 0 1-1.59 2.15 7.78 7.78 0 0 1-2.36 1.45 7.93 7.93 0 0 1-2.89.52H392.4v-4.52h14.85a2.55 2.55 0 0 0 1.81-.65 2.12 2.12 0 0 0 .72-1.65 2.09 2.09 0 0 0-.72-1.6 2.59 2.59 0 0 0-1.81-.65h-9.9a7.89 7.89 0 0 1-2.89-.52 7.33 7.33 0 0 1-2.34-1.45 7 7 0 0 1-1.56-2.13 6.23 6.23 0 0 1 0-5.25 6.6 6.6 0 0 1 1.56-2.13 7.44 7.44 0 0 1 2.34-1.42 7.89 7.89 0 0 1 2.89-.53z"/><path d="M421.12,18.65V41.1h-4.84V18.65Z"/><path d="M435 18.65a13 13 0 0 1 4.82.88 12.51 12.51 0 0 1 3.9 2.4 11.2 11.2 0 0 1 2.64 3.55 10.08 10.08 0 0 1 1 4.37v9a10.09 10.09 0 0 1-1 4.38 11.51 11.51 0 0 1-2.64 3.57 12.59 12.59 0 0 1-3.9 2.43 13.15 13.15 0 0 1-4.82.87h-2.47v-4.45H435a7.69 7.69 0 0 0 4.38-1.27 6.88 6.88 0 0 0 2.66-3.28h-7a13.16 13.16 0 0 1-4.78-.87 12.65 12.65 0 0 1-4-2.43 11.2 11.2 0 0 1-2.67-3.6 10.38 10.38 0 0 1 0-8.72 11 11 0 0 1 2.67-3.55 12.57 12.57 0 0 1 4-2.4 13 13 0 0 1 4.74-.88zm-7.48 11.2a6.29 6.29 0 0 0 .58 2.65 6.87 6.87 0 0 0 1.6 2.18 7.46 7.46 0 0 0 2.39 1.45 8.07 8.07 0 0 0 2.91.52h7.48v-6.8a6.11 6.11 0 0 0-.57-2.62 6.75 6.75 0 0 0-1.6-2.15 7.5 7.5 0 0 0-2.31-1.45 8.28 8.28 0 0 0-5.83 0 7.29 7.29 0 0 0-2.39 1.45 6.75 6.75 0 0 0-1.6 2.15 6.12 6.12 0 0 0-.63 2.62z"/><path d="M449.86 25.53A11.2 11.2 0 0 1 452.5 22a12.21 12.21 0 0 1 3.93-2.4A13.18 13.18 0 0 1 470 22a11.3 11.3 0 0 1 2.67 3.55 10 10 0 0 1 1 4.37v11.23h-4.9V29.9a6.11 6.11 0 0 0-.57-2.62 6.75 6.75 0 0 0-1.6-2.15 7.5 7.5 0 0 0-2.39-1.45 8.13 8.13 0 0 0-2.92-.53 7.84 7.84 0 0 0-2.88.53 7.52 7.52 0 0 0-2.41 1.45 6.58 6.58 0 0 0-1.59 2.15 6 6 0 0 0-.58 2.62v11.25h-4.9V29.9a9.92 9.92 0 0 1 .93-4.37z"/><path d="M307.92,30.6a4.05,4.05,0,1,1,8.1,0,4.05,4.05,0,1,1-8.1,0Z"/></g></svg>