<svg xmlns="http://www.w3.org/2000/svg" xmlns:xlink="http://www.w3.org/1999/xlink" viewBox="0 0 1245.59 504.35"><defs><style>.a{fill:url(#a);}.b{fill:none;}.c{fill:url(#s);}.d{fill:url(#ak);}</style><linearGradient id="a" x1="13.02" y1="29.88" x2="473.59" y2="29.88" gradientUnits="userSpaceOnUse"><stop offset="0.02" stop-color="#3f4756"/><stop offset="0.03" stop-color="#3f4757"/><stop offset="0.26" stop-color="#3b516d"/><stop offset="0.42" stop-color="#3a5575"/><stop offset="0.7" stop-color="#a4844e"/><stop offset="0.77" stop-color="#9c7c47"/><stop offset="0.88" stop-color="#856833"/><stop offset="0.97" stop-color="#6e531f"/></linearGradient><linearGradient id="s" x1="-187.98" y1="476.88" x2="272.59" y2="476.88" xlink:href="#a"/><linearGradient id="ak" x1="80.72" y1="615.18" x2="350.7" y2="345.2" gradientUnits="userSpaceOnUse"><stop offset="0.12" stop-color="#3f4756"/><stop offset="0.12" stop-color="#3f4757"/><stop offset="0.27" stop-color="#3b516d"/><stop offset="0.36" stop-color="#3a5575"/><stop offset="0.65" stop-color="#a4844e"/><stop offset="0.72" stop-color="#9c7c47"/><stop offset="0.84" stop-color="#856833"/><stop offset="0.93" stop-color="#6e531f"/></linearGradient></defs><title>creativeCogLogo</title><path class="a" d="M16.6,22a12.12,12.12,0,0,1,4.1-2.47,13.41,13.41,0,0,1,9.29,0A12.22,12.22,0,0,1,34.09,22l1.7,1.55-3.41,3.15L30.62,25.1a7.65,7.65,0,0,0-2.47-1.5,8.12,8.12,0,0,0-5.61,0,7.7,7.7,0,0,0-2.48,1.5,6.21,6.21,0,0,0-1.65,7.3,6.61,6.61,0,0,0,1.65,2.25,7.56,7.56,0,0,0,5.28,2,8.12,8.12,0,0,0,2.86-.5,6.66,6.66,0,0,0,2.42-1.5l1.76-1.55,3.41,3.15-1.7,1.55A12.25,12.25,0,0,1,30,40.28a13.57,13.57,0,0,1-9.29,0,12.15,12.15,0,0,1-4.1-2.48A10.56,10.56,0,0,1,16.6,22Z" transform="translate(772 -9.65)"/><path class="a" d="M52.57,18.65V23.1H50.09a7.84,7.84,0,0,0-2.88.53,7.52,7.52,0,0,0-2.37,1.45,6.58,6.58,0,0,0-1.59,2.15,6,6,0,0,0-.58,2.62V41.1h-5V29.85a10.08,10.08,0,0,1,1-4.37,11,11,0,0,1,2.67-3.55,12.57,12.57,0,0,1,4-2.4,13,13,0,0,1,4.78-.88Z" transform="translate(772 -9.65)"/><path class="a" d="M73.36,33.2l3.46,3.15-1.7,1.55a12.28,12.28,0,0,1-4,2.45,13.59,13.59,0,0,1-9.46,0,12.24,12.24,0,0,1-4-2.45,10.69,10.69,0,0,1-2.7-3.72A10.91,10.91,0,0,1,54.05,30a10.54,10.54,0,0,1,3.58-7.9,12.18,12.18,0,0,1,4.09-2.47,13.44,13.44,0,0,1,9.3,0,12.22,12.22,0,0,1,4.1,2.47l1.7,1.55L63.13,36.05a7.85,7.85,0,0,0,4.42.63,7.49,7.49,0,0,0,4.1-1.93ZM61.09,25.15a6.29,6.29,0,0,0-2.2,4.8,6,6,0,0,0,.77,2.95l2-1.82,2.86-2.6,2.91-2.63c.94-.83,1.66-1.48,2.18-2a8.07,8.07,0,0,0-4.43-.65A7.35,7.35,0,0,0,61.09,25.15Z" transform="translate(772 -9.65)"/><path class="a" d="M90.79,18.65a12.89,12.89,0,0,1,4.81.88,12.44,12.44,0,0,1,3.91,2.4,11.2,11.2,0,0,1,2.64,3.55,10.08,10.08,0,0,1,1,4.37V41.1H90.79A13.12,13.12,0,0,1,86,40.23a12.65,12.65,0,0,1-4-2.43,11.2,11.2,0,0,1-2.67-3.6,10.38,10.38,0,0,1,0-8.72,11,11,0,0,1,2.67-3.55,12.57,12.57,0,0,1,4-2.4A12.92,12.92,0,0,1,90.79,18.65Zm7.43,18v-6.8a6.12,6.12,0,0,0-.58-2.62A6.75,6.75,0,0,0,96,25.08a7.36,7.36,0,0,0-2.36-1.45,7.89,7.89,0,0,0-2.89-.53,8,8,0,0,0-2.91.53,7.44,7.44,0,0,0-2.4,1.45,6.72,6.72,0,0,0-1.59,2.15,6,6,0,0,0-.58,2.62,6.14,6.14,0,0,0,.58,2.65,6.85,6.85,0,0,0,1.59,2.18,7.62,7.62,0,0,0,2.4,1.45,8,8,0,0,0,2.91.52Z" transform="translate(772 -9.65)"/><path class="a" d="M119.34,36.65V41.1h-2.42a13.18,13.18,0,0,1-4.79-.87,12.88,12.88,0,0,1-4-2.43,11.5,11.5,0,0,1-2.67-3.6,10.15,10.15,0,0,1-1-4.35V9.65h4.9v13.5h9.9V27.6h-9.9v2.25A6.28,6.28,0,0,0,110,32.5a6.87,6.87,0,0,0,1.6,2.18A7.57,7.57,0,0,0,114,36.13a8.13,8.13,0,0,0,2.92.52Z" transform="translate(772 -9.65)"/><path class="a" d="M126,18.65V41.1h-4.84V18.65Z" transform="translate(772 -9.65)"/><path class="a" d="M153.38,18.55l-12.87,22.5L127.7,18.55h5.5L135,21.63c.66,1.15,1.32,2.31,2,3.5s1.31,2.32,1.95,3.42,1.18,2.05,1.62,2.85l1.9-3.32,2.12-3.73,1.92-3.42c.59-1.05,1.05-1.85,1.38-2.38Z" transform="translate(772 -9.65)"/><path class="a" d="M174.23,33.2l3.46,3.15L176,37.9a12.38,12.38,0,0,1-4,2.45,13.59,13.59,0,0,1-9.46,0,12.24,12.24,0,0,1-4-2.45A10.63,10.63,0,0,1,154.92,30a10.52,10.52,0,0,1,.88-4.2,10.71,10.71,0,0,1,2.7-3.7,12.18,12.18,0,0,1,4.09-2.47,13.44,13.44,0,0,1,9.3,0,12.22,12.22,0,0,1,4.1,2.47l1.7,1.55L164,36.05a7.84,7.84,0,0,0,4.42.63,7.49,7.49,0,0,0,4.1-1.93ZM162,25.15a6.26,6.26,0,0,0-2.2,4.8,6,6,0,0,0,.77,2.95l2-1.82,2.86-2.6,2.91-2.63c.94-.83,1.66-1.48,2.18-2a8.07,8.07,0,0,0-4.43-.65A7.32,7.32,0,0,0,162,25.15Z" transform="translate(772 -9.65)"/><path class="a" d="M210.47,22a12.22,12.22,0,0,1,4.1-2.47,13.41,13.41,0,0,1,9.29,0A12.22,12.22,0,0,1,228,22l1.71,1.55-3.42,3.15L224.5,25.1A7.7,7.7,0,0,0,222,23.6a8.12,8.12,0,0,0-5.61,0,7.55,7.55,0,0,0-2.47,1.5,6.11,6.11,0,0,0-1.65,2.2,6.19,6.19,0,0,0,0,5.1,6.36,6.36,0,0,0,1.65,2.25,7.52,7.52,0,0,0,5.27,2,8.18,8.18,0,0,0,2.87-.5,6.84,6.84,0,0,0,2.42-1.5l1.75-1.55,3.42,3.15L228,37.8a12.25,12.25,0,0,1-4.1,2.48,13.57,13.57,0,0,1-9.29,0,12.25,12.25,0,0,1-4.1-2.48,10.58,10.58,0,0,1,0-15.85Z" transform="translate(772 -9.65)"/><path class="a" d="M231.59,30a10,10,0,0,1,1-4.37A11.2,11.2,0,0,1,235.19,22a12.37,12.37,0,0,1,3.94-2.4A13.21,13.21,0,0,1,252.66,22a11.12,11.12,0,0,1,2.66,3.55,10.28,10.28,0,0,1,0,8.72,11.31,11.31,0,0,1-2.66,3.6,12.71,12.71,0,0,1-3.94,2.43,13.65,13.65,0,0,1-9.59,0,12.26,12.26,0,0,1-3.94-2.43,11.41,11.41,0,0,1-2.64-3.6A10.09,10.09,0,0,1,231.59,30Zm4.84,0A6.17,6.17,0,0,0,237,32.6a6.59,6.59,0,0,0,1.59,2.18,7.62,7.62,0,0,0,2.4,1.45,8,8,0,0,0,2.91.52,8.13,8.13,0,0,0,2.92-.52,7.69,7.69,0,0,0,2.39-1.45,6.59,6.59,0,0,0,1.59-2.18,6.17,6.17,0,0,0,.58-2.65,6,6,0,0,0-.58-2.62,6.58,6.58,0,0,0-1.59-2.15,7.5,7.5,0,0,0-2.39-1.45,8.13,8.13,0,0,0-2.92-.53,8,8,0,0,0-2.91.53,7.44,7.44,0,0,0-2.4,1.45A6.58,6.58,0,0,0,237,27.33,6,6,0,0,0,236.43,30Z" transform="translate(772 -9.65)"/><path class="a" d="M270.25,18.65a13,13,0,0,1,4.82.88,12.51,12.51,0,0,1,3.9,2.4,11.2,11.2,0,0,1,2.64,3.55,10.08,10.08,0,0,1,1,4.37v9a10.09,10.09,0,0,1-1,4.38A11.51,11.51,0,0,1,279,46.8a12.59,12.59,0,0,1-3.9,2.43,13.15,13.15,0,0,1-4.82.87h-2.47V45.65h2.47a7.69,7.69,0,0,0,4.38-1.27,6.88,6.88,0,0,0,2.66-3.28h-7a13.16,13.16,0,0,1-4.78-.87,12.88,12.88,0,0,1-4-2.43,11.2,11.2,0,0,1-2.67-3.6,10.38,10.38,0,0,1,0-8.72,11,11,0,0,1,2.67-3.55,12.8,12.8,0,0,1,4-2.4A13,13,0,0,1,270.25,18.65Zm-7.48,11.2a6.29,6.29,0,0,0,.58,2.65,6.87,6.87,0,0,0,1.6,2.18,7.57,7.57,0,0,0,2.39,1.45,8.11,8.11,0,0,0,2.91.52h7.48v-6.8a6.11,6.11,0,0,0-.57-2.62,6.75,6.75,0,0,0-1.6-2.15,7.5,7.5,0,0,0-2.39-1.45,8.28,8.28,0,0,0-5.83,0A7.4,7.4,0,0,0,265,25.08a6.75,6.75,0,0,0-1.6,2.15A6.12,6.12,0,0,0,262.77,29.85Z" transform="translate(772 -9.65)"/><path class="a" d="M363.86,9.65v20.2a10.15,10.15,0,0,1-1,4.35,11.41,11.41,0,0,1-2.64,3.6,12.5,12.5,0,0,1-3.93,2.43,13.59,13.59,0,0,1-9.57,0,12.76,12.76,0,0,1-4-2.43,11.2,11.2,0,0,1-2.67-3.6,10.38,10.38,0,0,1,0-8.72,11,11,0,0,1,2.67-3.55,12.69,12.69,0,0,1,4-2.4,13,13,0,0,1,4.78-.88H359v-9Zm-12.32,27a7.89,7.89,0,0,0,2.89-.52,7.71,7.71,0,0,0,2.37-1.45,6.85,6.85,0,0,0,1.59-2.18,6.14,6.14,0,0,0,.58-2.65V23.1h-7.43a8.08,8.08,0,0,0-2.91.53,7.4,7.4,0,0,0-2.39,1.45,6.75,6.75,0,0,0-1.6,2.15,6.12,6.12,0,0,0-.58,2.62,6.29,6.29,0,0,0,.58,2.65,6.87,6.87,0,0,0,1.6,2.18,7.57,7.57,0,0,0,2.39,1.45A8.07,8.07,0,0,0,351.54,36.65Z" transform="translate(772 -9.65)"/><path class="a" d="M384.93,33.2l3.46,3.15-1.7,1.55a12.28,12.28,0,0,1-4,2.45,13.59,13.59,0,0,1-9.46,0,12.24,12.24,0,0,1-4-2.45,10.69,10.69,0,0,1-2.7-3.72,10.91,10.91,0,0,1-.88-4.23,10.54,10.54,0,0,1,3.58-7.9,12.12,12.12,0,0,1,4.1-2.47,13.41,13.41,0,0,1,9.29,0,12.22,12.22,0,0,1,4.1,2.47l1.7,1.55L374.7,36.05a7.87,7.87,0,0,0,4.43.63,7.5,7.5,0,0,0,4.09-1.93Zm-12.27-8.05a6.29,6.29,0,0,0-2.2,4.8,6,6,0,0,0,.77,2.95l2-1.82,2.86-2.6c1-.92,2-1.79,2.92-2.63l2.17-2a8.07,8.07,0,0,0-4.43-.65A7.35,7.35,0,0,0,372.66,25.15Z" transform="translate(772 -9.65)"/><path class="a" d="M412.26,18.65V23.1h-14.9a2.52,2.52,0,0,0-1.76.65,2.09,2.09,0,0,0-.72,1.6A2.15,2.15,0,0,0,395.6,27a2.45,2.45,0,0,0,1.76.67h9.9a7.94,7.94,0,0,1,5.25,2,6.4,6.4,0,0,1,1.59,2.13,6.23,6.23,0,0,1,0,5.25,6.8,6.8,0,0,1-1.59,2.15,7.78,7.78,0,0,1-2.36,1.45,7.93,7.93,0,0,1-2.89.52H392.41V36.65h14.85a2.55,2.55,0,0,0,1.81-.65,2.12,2.12,0,0,0,.72-1.65,2.09,2.09,0,0,0-.72-1.6,2.59,2.59,0,0,0-1.81-.65h-9.9a7.89,7.89,0,0,1-2.89-.52,7.33,7.33,0,0,1-2.34-1.45A7,7,0,0,1,390.57,28a6.23,6.23,0,0,1,0-5.25,6.6,6.6,0,0,1,1.56-2.13,7.44,7.44,0,0,1,2.34-1.42,7.89,7.89,0,0,1,2.89-.53Z" transform="translate(772 -9.65)"/><path class="a" d="M421.12,18.65V41.1h-4.84V18.65Z" transform="translate(772 -9.65)"/><path class="a" d="M435,18.65a13,13,0,0,1,4.82.88,12.51,12.51,0,0,1,3.9,2.4,11.2,11.2,0,0,1,2.64,3.55,10.08,10.08,0,0,1,1,4.37v9a10.09,10.09,0,0,1-1,4.38,11.51,11.51,0,0,1-2.64,3.57,12.59,12.59,0,0,1-3.9,2.43,13.15,13.15,0,0,1-4.82.87h-2.47V45.65H435a7.69,7.69,0,0,0,4.38-1.27,6.88,6.88,0,0,0,2.66-3.28h-7a13.16,13.16,0,0,1-4.78-.87,12.65,12.65,0,0,1-4-2.43,11.2,11.2,0,0,1-2.67-3.6,10.38,10.38,0,0,1,0-8.72,11,11,0,0,1,2.67-3.55,12.57,12.57,0,0,1,4-2.4A13,13,0,0,1,435,18.65Zm-7.48,11.2a6.29,6.29,0,0,0,.58,2.65,6.87,6.87,0,0,0,1.6,2.18,7.46,7.46,0,0,0,2.39,1.45,8.07,8.07,0,0,0,2.91.52h7.48v-6.8a6.11,6.11,0,0,0-.57-2.62,6.75,6.75,0,0,0-1.6-2.15A7.5,7.5,0,0,0,438,23.63a8.28,8.28,0,0,0-5.83,0,7.29,7.29,0,0,0-2.39,1.45,6.75,6.75,0,0,0-1.6,2.15A6.12,6.12,0,0,0,427.55,29.85Z" transform="translate(772 -9.65)"/><path class="a" d="M449.86,25.53A11.2,11.2,0,0,1,452.5,22a12.21,12.21,0,0,1,3.93-2.4A13.18,13.18,0,0,1,470,22a11.3,11.3,0,0,1,2.67,3.55,10,10,0,0,1,1,4.37V41.15h-4.9V29.9a6.11,6.11,0,0,0-.57-2.62,6.75,6.75,0,0,0-1.6-2.15,7.5,7.5,0,0,0-2.39-1.45,8.13,8.13,0,0,0-2.92-.53,7.84,7.84,0,0,0-2.88.53A7.52,7.52,0,0,0,456,25.13a6.58,6.58,0,0,0-1.59,2.15,6,6,0,0,0-.58,2.62V41.15h-4.9V29.9A9.92,9.92,0,0,1,449.86,25.53Z" transform="translate(772 -9.65)"/><path class="a" d="M307.92,30.6a4.05,4.05,0,1,1,8.1,0,4.05,4.05,0,1,1-8.1,0Z" transform="translate(772 -9.65)"/><path class="b" d="M106.92,477.6a4.05,4.05,0,1,1,4,4.25A4.05,4.05,0,0,1,106.92,477.6Z" transform="translate(772 -9.65)"/><path class="c" d="M-184.4,469a12.12,12.12,0,0,1,4.1-2.47,13.56,13.56,0,0,1,4.64-.83,13.58,13.58,0,0,1,4.65.83,12.22,12.22,0,0,1,4.1,2.47l1.7,1.55-3.41,3.15-1.76-1.55a7.65,7.65,0,0,0-2.47-1.5,8.24,8.24,0,0,0-2.81-.5,8.19,8.19,0,0,0-2.8.5,7.7,7.7,0,0,0-2.48,1.5,6.34,6.34,0,0,0-1.65,2.2,6.4,6.4,0,0,0-.55,2.55,6.36,6.36,0,0,0,.55,2.55,6.61,6.61,0,0,0,1.65,2.25,7.56,7.56,0,0,0,5.28,2,8.12,8.12,0,0,0,2.86-.5,6.66,6.66,0,0,0,2.42-1.5l1.76-1.55,3.41,3.15-1.7,1.55a12.25,12.25,0,0,1-4.1,2.48,13.56,13.56,0,0,1-4.65.82,13.55,13.55,0,0,1-4.64-.82,12.15,12.15,0,0,1-4.1-2.48,10.71,10.71,0,0,1-2.7-3.7,10.68,10.68,0,0,1-.88-4.22,10.76,10.76,0,0,1,.88-4.23A10.81,10.81,0,0,1-184.4,469Z" transform="translate(772 -9.65)"/><path class="c" d="M-148.43,465.65v4.45h-2.48a7.84,7.84,0,0,0-2.88.53,7.52,7.52,0,0,0-2.37,1.45,6.58,6.58,0,0,0-1.59,2.15,6,6,0,0,0-.58,2.62V488.1h-4.95V476.85a10.08,10.08,0,0,1,1-4.37,11,11,0,0,1,2.67-3.55,12.57,12.57,0,0,1,4-2.4,13,13,0,0,1,4.78-.88Z" transform="translate(772 -9.65)"/><path class="c" d="M-127.64,480.2l3.46,3.15-1.7,1.55a12.28,12.28,0,0,1-4,2.45,13.21,13.21,0,0,1-4.73.85,13.25,13.25,0,0,1-4.73-.85,12.24,12.24,0,0,1-4-2.45,10.69,10.69,0,0,1-2.7-3.72,10.91,10.91,0,0,1-.88-4.23,10.69,10.69,0,0,1,.88-4.2,10.71,10.71,0,0,1,2.7-3.7,12.12,12.12,0,0,1,4.1-2.47,13.56,13.56,0,0,1,4.64-.83,13.58,13.58,0,0,1,4.65.83,12.22,12.22,0,0,1,4.1,2.47l1.7,1.55-13.69,12.45a7.87,7.87,0,0,0,4.43.63,7.5,7.5,0,0,0,4.09-1.93Zm-12.27-8.05a6.31,6.31,0,0,0-2.2,4.8,6,6,0,0,0,.77,2.95l2-1.82,2.86-2.6,2.91-2.63c.94-.83,1.66-1.48,2.18-2a8.07,8.07,0,0,0-4.43-.65A7.42,7.42,0,0,0-139.91,472.15Z" transform="translate(772 -9.65)"/><path class="c" d="M-110.21,465.65a12.86,12.86,0,0,1,4.81.88,12.44,12.44,0,0,1,3.91,2.4,11.2,11.2,0,0,1,2.64,3.55,10.08,10.08,0,0,1,1,4.37V488.1h-12.32a13.12,13.12,0,0,1-4.78-.87,12.46,12.46,0,0,1-4-2.43,11.2,11.2,0,0,1-2.67-3.6,10.12,10.12,0,0,1-1-4.35,10.08,10.08,0,0,1,1-4.37,11,11,0,0,1,2.67-3.55,12.57,12.57,0,0,1,4-2.4A12.92,12.92,0,0,1-110.21,465.65Zm7.43,18v-6.8a6.12,6.12,0,0,0-.58-2.62,6.75,6.75,0,0,0-1.6-2.15,7.36,7.36,0,0,0-2.36-1.45,7.89,7.89,0,0,0-2.89-.53,8.08,8.08,0,0,0-2.91.53,7.44,7.44,0,0,0-2.4,1.45,6.72,6.72,0,0,0-1.59,2.15,6,6,0,0,0-.58,2.62,6.14,6.14,0,0,0,.58,2.65,6.74,6.74,0,0,0,1.59,2.18,7.62,7.62,0,0,0,2.4,1.45,8.07,8.07,0,0,0,2.91.52Z" transform="translate(772 -9.65)"/><path class="c" d="M-81.66,483.65v4.45h-2.42a13.22,13.22,0,0,1-4.79-.87,12.69,12.69,0,0,1-4-2.43,11.5,11.5,0,0,1-2.67-3.6,10.12,10.12,0,0,1-1-4.35v-20.2h4.9v13.5h9.9v4.45h-9.9v2.25A6.28,6.28,0,0,0-91,479.5a6.77,6.77,0,0,0,1.6,2.18A7.57,7.57,0,0,0-87,483.13a8.13,8.13,0,0,0,2.92.52Z" transform="translate(772 -9.65)"/><path class="c" d="M-75,465.65V488.1h-4.84V465.65Z" transform="translate(772 -9.65)"/><path class="c" d="M-47.62,465.55l-12.87,22.5-12.81-22.5h5.5l1.76,3.08c.66,1.15,1.32,2.31,2,3.5s1.31,2.32,2,3.42,1.18,2.05,1.62,2.85l1.9-3.32,2.12-3.73,1.92-3.42c.59-1.05,1-1.84,1.38-2.38Z" transform="translate(772 -9.65)"/><path class="c" d="M-26.77,480.2l3.46,3.15L-25,484.9a12.38,12.38,0,0,1-4,2.45,13.21,13.21,0,0,1-4.73.85,13.21,13.21,0,0,1-4.73-.85,12.24,12.24,0,0,1-4-2.45,10.69,10.69,0,0,1-2.7-3.72,10.73,10.73,0,0,1-.88-4.23,10.52,10.52,0,0,1,.88-4.2,10.71,10.71,0,0,1,2.7-3.7,12.18,12.18,0,0,1,4.09-2.47,13.58,13.58,0,0,1,4.65-.83,13.58,13.58,0,0,1,4.65.83,12.22,12.22,0,0,1,4.1,2.47l1.7,1.55L-37,483.05a7.84,7.84,0,0,0,4.42.63,7.49,7.49,0,0,0,4.1-1.93ZM-39,472.15a6.27,6.27,0,0,0-2.2,4.8,6,6,0,0,0,.77,2.95l2-1.82,2.86-2.6,2.91-2.63c.94-.83,1.66-1.48,2.18-2a8.07,8.07,0,0,0-4.43-.65A7.39,7.39,0,0,0-39,472.15Z" transform="translate(772 -9.65)"/><path class="c" d="M9.47,469a12.22,12.22,0,0,1,4.1-2.47,13.41,13.41,0,0,1,9.29,0A12.22,12.22,0,0,1,27,469l1.71,1.55-3.41,3.15L23.5,472.1A7.7,7.7,0,0,0,21,470.6a8.12,8.12,0,0,0-5.61,0,7.55,7.55,0,0,0-2.47,1.5,6.11,6.11,0,0,0-1.65,2.2,6.19,6.19,0,0,0,0,5.1,6.36,6.36,0,0,0,1.65,2.25,7.52,7.52,0,0,0,5.28,2,8.16,8.16,0,0,0,2.86-.5,6.84,6.84,0,0,0,2.42-1.5l1.76-1.55,3.41,3.15L27,484.8a12.25,12.25,0,0,1-4.1,2.48,13.57,13.57,0,0,1-9.29,0,12.25,12.25,0,0,1-4.1-2.48,10.58,10.58,0,0,1,0-15.85Z" transform="translate(772 -9.65)"/><path class="c" d="M30.59,477a10,10,0,0,1,1-4.37A11.2,11.2,0,0,1,34.19,469a12.37,12.37,0,0,1,3.94-2.4A13.21,13.21,0,0,1,51.66,469a11.12,11.12,0,0,1,2.66,3.55,10.28,10.28,0,0,1,0,8.72,11.31,11.31,0,0,1-2.66,3.6,12.71,12.71,0,0,1-3.94,2.43,13.65,13.65,0,0,1-9.59,0,12.26,12.26,0,0,1-3.94-2.43,11.41,11.41,0,0,1-2.64-3.6A10.09,10.09,0,0,1,30.59,477Zm4.84,0A6.17,6.17,0,0,0,36,479.6a6.59,6.59,0,0,0,1.59,2.18,7.62,7.62,0,0,0,2.4,1.45,8,8,0,0,0,2.91.52,8.13,8.13,0,0,0,2.92-.52,7.69,7.69,0,0,0,2.39-1.45,6.59,6.59,0,0,0,1.59-2.18,6.17,6.17,0,0,0,.58-2.65,6,6,0,0,0-.58-2.62,6.58,6.58,0,0,0-1.59-2.15,7.5,7.5,0,0,0-2.39-1.45,8.13,8.13,0,0,0-2.92-.53,8,8,0,0,0-2.91.53,7.44,7.44,0,0,0-2.4,1.45A6.58,6.58,0,0,0,36,474.33,6,6,0,0,0,35.43,477Z" transform="translate(772 -9.65)"/><path class="c" d="M69.25,465.65a13,13,0,0,1,4.82.88,12.51,12.51,0,0,1,3.9,2.4,11.2,11.2,0,0,1,2.64,3.55,10.08,10.08,0,0,1,1,4.37v9a10.09,10.09,0,0,1-1,4.38A11.51,11.51,0,0,1,78,493.8a12.59,12.59,0,0,1-3.9,2.43,13.15,13.15,0,0,1-4.82.87H66.78v-4.45h2.47a7.69,7.69,0,0,0,4.38-1.27,6.88,6.88,0,0,0,2.66-3.28h-7a13.16,13.16,0,0,1-4.78-.87,12.69,12.69,0,0,1-4-2.43,11.2,11.2,0,0,1-2.67-3.6,10.38,10.38,0,0,1,0-8.72,11,11,0,0,1,2.67-3.55,12.8,12.8,0,0,1,4-2.4A13,13,0,0,1,69.25,465.65Zm-7.48,11.2a6.29,6.29,0,0,0,.58,2.65,6.77,6.77,0,0,0,1.6,2.18,7.57,7.57,0,0,0,2.39,1.45,8.11,8.11,0,0,0,2.91.52h7.48v-6.8a6.11,6.11,0,0,0-.57-2.62,6.75,6.75,0,0,0-1.6-2.15,7.4,7.4,0,0,0-2.39-1.45,8.28,8.28,0,0,0-5.83,0A7.4,7.4,0,0,0,64,472.08a6.75,6.75,0,0,0-1.6,2.15A6.12,6.12,0,0,0,61.77,476.85Z" transform="translate(772 -9.65)"/><path class="c" d="M162.86,456.65v20.2a10.12,10.12,0,0,1-1,4.35,11.41,11.41,0,0,1-2.64,3.6,12.32,12.32,0,0,1-3.93,2.43,13.59,13.59,0,0,1-9.57,0,12.58,12.58,0,0,1-4-2.43,11.2,11.2,0,0,1-2.67-3.6,10.38,10.38,0,0,1,0-8.72,11,11,0,0,1,2.67-3.55,12.69,12.69,0,0,1,4-2.4,13,13,0,0,1,4.78-.88H158v-9Zm-12.32,27a7.89,7.89,0,0,0,2.89-.52,7.71,7.71,0,0,0,2.37-1.45,6.74,6.74,0,0,0,1.59-2.18,6.14,6.14,0,0,0,.58-2.65V470.1h-7.43a8.08,8.08,0,0,0-2.91.53,7.4,7.4,0,0,0-2.39,1.45,6.75,6.75,0,0,0-1.6,2.15,6.12,6.12,0,0,0-.58,2.62,6.29,6.29,0,0,0,.58,2.65,6.77,6.77,0,0,0,1.6,2.18,7.57,7.57,0,0,0,2.39,1.45A8.07,8.07,0,0,0,150.54,483.65Z" transform="translate(772 -9.65)"/><path class="c" d="M183.93,480.2l3.46,3.15-1.7,1.55a12.28,12.28,0,0,1-4,2.45,13.59,13.59,0,0,1-9.46,0,12.24,12.24,0,0,1-4-2.45,10.69,10.69,0,0,1-2.7-3.72,10.91,10.91,0,0,1-.88-4.23,10.54,10.54,0,0,1,3.58-7.9,12.12,12.12,0,0,1,4.1-2.47,13.41,13.41,0,0,1,9.29,0,12.22,12.22,0,0,1,4.1,2.47l1.7,1.55L173.7,483.05a7.87,7.87,0,0,0,4.43.63,7.5,7.5,0,0,0,4.09-1.93Zm-12.27-8.05a6.31,6.31,0,0,0-2.2,4.8,6,6,0,0,0,.77,2.95l2-1.82,2.86-2.6c1-.92,2-1.79,2.92-2.63l2.17-2a8.07,8.07,0,0,0-4.43-.65A7.42,7.42,0,0,0,171.66,472.15Z" transform="translate(772 -9.65)"/><path class="c" d="M211.26,465.65v4.45h-14.9a2.52,2.52,0,0,0-1.76.65,2.09,2.09,0,0,0-.72,1.6,2.15,2.15,0,0,0,.72,1.63,2.45,2.45,0,0,0,1.76.67h9.9a7.94,7.94,0,0,1,5.25,2,6.4,6.4,0,0,1,1.59,2.13,6.23,6.23,0,0,1,0,5.25,6.8,6.8,0,0,1-1.59,2.15,7.78,7.78,0,0,1-2.36,1.45,7.93,7.93,0,0,1-2.89.52H191.41v-4.45h14.85a2.55,2.55,0,0,0,1.81-.65,2.12,2.12,0,0,0,.72-1.65,2.09,2.09,0,0,0-.72-1.6,2.59,2.59,0,0,0-1.81-.65h-9.9a7.89,7.89,0,0,1-2.89-.52,7.33,7.33,0,0,1-2.34-1.45,7,7,0,0,1-1.56-2.15,6.23,6.23,0,0,1,0-5.25,6.6,6.6,0,0,1,1.56-2.13,7.44,7.44,0,0,1,2.34-1.42,7.89,7.89,0,0,1,2.89-.53Z" transform="translate(772 -9.65)"/><path class="c" d="M220.12,465.65V488.1h-4.84V465.65Z" transform="translate(772 -9.65)"/><path class="c" d="M234,465.65a13,13,0,0,1,4.82.88,12.51,12.51,0,0,1,3.9,2.4,11.2,11.2,0,0,1,2.64,3.55,10.08,10.08,0,0,1,1,4.37v9a10.09,10.09,0,0,1-1,4.38,11.51,11.51,0,0,1-2.64,3.57,12.59,12.59,0,0,1-3.9,2.43,13.15,13.15,0,0,1-4.82.87h-2.47v-4.45H234a7.69,7.69,0,0,0,4.38-1.27,6.88,6.88,0,0,0,2.66-3.28h-7a13.16,13.16,0,0,1-4.78-.87,12.46,12.46,0,0,1-4-2.43,11.2,11.2,0,0,1-2.67-3.6,10.38,10.38,0,0,1,0-8.72,11,11,0,0,1,2.67-3.55,12.57,12.57,0,0,1,4-2.4A13,13,0,0,1,234,465.65Zm-7.48,11.2a6.29,6.29,0,0,0,.58,2.65,6.77,6.77,0,0,0,1.6,2.18,7.46,7.46,0,0,0,2.39,1.45,8.07,8.07,0,0,0,2.91.52h7.48v-6.8a6.11,6.11,0,0,0-.57-2.62,6.75,6.75,0,0,0-1.6-2.15,7.5,7.5,0,0,0-2.39-1.45,8.28,8.28,0,0,0-5.83,0,7.29,7.29,0,0,0-2.39,1.45,6.75,6.75,0,0,0-1.6,2.15A6.12,6.12,0,0,0,226.55,476.85Z" transform="translate(772 -9.65)"/><path class="c" d="M248.86,472.53A11.2,11.2,0,0,1,251.5,469a12.21,12.21,0,0,1,3.93-2.4A13.18,13.18,0,0,1,269,469a11.3,11.3,0,0,1,2.67,3.55,10.08,10.08,0,0,1,1,4.37v11.25h-4.9V476.9a6.11,6.11,0,0,0-.57-2.62,6.75,6.75,0,0,0-1.6-2.15,7.5,7.5,0,0,0-2.39-1.45,8.13,8.13,0,0,0-2.92-.53,7.84,7.84,0,0,0-2.88.53,7.52,7.52,0,0,0-2.37,1.45,6.58,6.58,0,0,0-1.59,2.15,6,6,0,0,0-.58,2.62v11.25h-4.9V476.9A10,10,0,0,1,248.86,472.53Z" transform="translate(772 -9.65)"/><path class="c" d="M106.92,477.6a4.05,4.05,0,1,1,4,4.25A4.05,4.05,0,0,1,106.92,477.6Z" transform="translate(772 -9.65)"/><rect class="d" y="425.92" width="461.53" height="78.43"/></svg>