<svg xmlns="http://www.w3.org/2000/svg" xmlns:xlink="http://www.w3.org/1999/xlink" viewBox="0 0 1921 1083.34"><defs><style>.a{fill:none;}.b{clip-path:url(#a);}.c{fill:#3f4756;stroke:#3f4756;stroke-miterlimit:10;}.d{fill:url(#b);}.e{fill:url(#c);}.f{fill:url(#d);}.g{fill:url(#e);}.h{fill:url(#f);}.i{fill:url(#g);}.j{fill:url(#h);}.k{fill:url(#i);}.l{fill:url(#j);}.m{fill:url(#k);}.n{fill:url(#l);}.o{fill:url(#m);}</style><clipPath id="a" transform="translate(0.5 1.84)"><rect class="a" x="1" width="1920" height="1080"/></clipPath><linearGradient id="b" x1="1144.76" y1="938.08" x2="1480.07" y2="938.08" gradientUnits="userSpaceOnUse"><stop offset="0" stop-color="#fff"/><stop offset="0.2" stop-color="#a3abbd"/><stop offset="0.44" stop-color="#565e6f"/><stop offset="0.55" stop-color="#4d5565"/><stop offset="0.75" stop-color="#3f4756"/></linearGradient><linearGradient id="c" x1="1448.86" y1="810.36" x2="1643.09" y2="616.13" gradientUnits="userSpaceOnUse"><stop offset="0" stop-color="#89744c"/><stop offset="1" stop-color="#464b55"/><stop offset="1" stop-color="#3f4756"/></linearGradient><linearGradient id="d" x1="1576.76" y1="987.7" x2="1911.39" y2="987.7" xlink:href="#b"/><linearGradient id="e" x1="1718.54" y1="1007.08" x2="1908.83" y2="1007.08" xlink:href="#b"/><linearGradient id="f" x1="1433.97" y1="929.9" x2="1910.54" y2="929.9" xlink:href="#b"/><linearGradient id="g" x1="1770.81" y1="777.23" x2="1913.1" y2="777.23" xlink:href="#b"/><linearGradient id="h" x1="1340.19" y1="913.78" x2="1769.44" y2="913.78" xlink:href="#b"/><linearGradient id="i" x1="1283.96" y1="1047.08" x2="1595.27" y2="1047.08" xlink:href="#b"/><linearGradient id="j" x1="1684.41" y1="675.08" x2="1914.47" y2="675.08" xlink:href="#b"/><linearGradient id="k" x1="1683.91" y1="574.84" x2="1911.91" y2="574.84" xlink:href="#b"/><linearGradient id="l" x1="1483.16" y1="750.54" x2="1772.19" y2="750.54" xlink:href="#b"/><linearGradient id="m" x1="991" y1="1013.75" x2="1339.69" y2="1013.75" xlink:href="#b"/></defs><title>finalCreativeCogBkground</title><g class="b"><rect class="c" x="0.5" y="0.5" width="1920" height="1082.34"/><polygon class="d" points="1152.3 949.03 1290.13 831.99 1480.07 841.57 1340.19 1044.17 1144.76 950.4 1152.3 949.03"/><polygon class="e" points="1497.9 671.83 1480.07 841.57 1687.84 660.88 1497.9 671.83"/><polygon class="f" points="1911.04 893.93 1873.67 935.34 1598.7 1019.53 1576.76 1081.13 1719.04 1081.47 1724.87 1058.54 1877.44 937.74 1911.39 940.82 1911.04 893.93"/><path class="g" d="M1908.14,936.92v1.37l.68,142.37s-190.29,0-190.29-1,1.37-23.27,3.09-24.64S1868.71,933.5,1873.17,933.5,1908.14,936.92,1908.14,936.92Z" transform="translate(0.5 1.84)"/><path class="h" d="M1909.17,813l1.37,79.06-37.37,41.41-275,84.19-21.94,61.6-142.29,1,160.8-70.15s172.8-230.66,174.86-230.66S1909.17,813,1909.17,813Z" transform="translate(0.5 1.84)"/><polygon class="i" points="1911.04 737.88 1911.04 816.93 1770.81 782.71 1913.1 737.53 1911.04 737.88"/><polygon class="j" points="1769.44 783.05 1595.27 1012 1340.19 1044.51 1481.79 838.83 1769.44 783.05"/><polygon class="k" points="1283.96 1081.13 1340.19 1044.51 1595.27 1012 1434.47 1082.16 1283.96 1081.13"/><polygon class="l" points="1907.27 571.21 1684.41 662.24 1770.81 783.05 1914.47 737.53 1913.44 567.1 1907.27 571.21"/><path class="m" d="M1911.91,567.45c0-1-2.4-25.12-2.4-25.12l-140.91-53L1683.91,660.4Z" transform="translate(0.5 1.84)"/><polygon class="n" points="1483.16 838.83 1685.79 662.24 1772.19 782.71 1483.16 838.83"/><path class="o" d="M992.71,1079.29c6.86-2.06,292.8.68,292.8.68l54.18-37.3-193.38-95.14L991,1080" transform="translate(0.5 1.84)"/></g></svg>